<svg id="Слой_1" data-name="Слой 1" xmlns="http://www.w3.org/2000/svg" xmlns:xlink="http://www.w3.org/1999/xlink" viewBox="0 0 2955.16 903.53"><defs><style>.cls-1{fill:url(#Безымянный_градиент_46);}.cls-2{fill:url(#Безымянный_градиент_47);}.cls-3{fill:url(#Безымянный_градиент_49);}.cls-4{fill:url(#Безымянный_градиент_50);}.cls-10,.cls-100,.cls-101,.cls-103,.cls-104,.cls-105,.cls-106,.cls-107,.cls-11,.cls-12,.cls-13,.cls-14,.cls-15,.cls-16,.cls-17,.cls-18,.cls-19,.cls-20,.cls-21,.cls-22,.cls-23,.cls-24,.cls-25,.cls-26,.cls-27,.cls-28,.cls-29,.cls-30,.cls-31,.cls-32,.cls-33,.cls-34,.cls-35,.cls-36,.cls-37,.cls-38,.cls-39,.cls-40,.cls-41,.cls-42,.cls-43,.cls-44,.cls-45,.cls-46,.cls-47,.cls-48,.cls-49,.cls-5,.cls-50,.cls-51,.cls-52,.cls-53,.cls-54,.cls-55,.cls-56,.cls-57,.cls-58,.cls-59,.cls-60,.cls-61,.cls-62,.cls-63,.cls-64,.cls-65,.cls-66,.cls-67,.cls-68,.cls-69,.cls-70,.cls-71,.cls-72,.cls-73,.cls-74,.cls-75,.cls-76,.cls-77,.cls-78,.cls-79,.cls-80,.cls-81,.cls-82,.cls-83,.cls-84,.cls-85,.cls-86,.cls-87,.cls-88,.cls-89,.cls-90,.cls-91,.cls-92,.cls-93,.cls-94,.cls-95,.cls-96,.cls-97,.cls-98,.cls-99{stroke-miterlimit:10;}.cls-5{fill:url(#Безымянный_градиент_51);stroke:url(#Безымянный_градиент_93);}.cls-6{fill:url(#Безымянный_градиент_41);}.cls-104,.cls-106,.cls-107,.cls-7,.cls-9{fill:#fff;}.cls-7,.cls-8{opacity:0.19;}.cls-10{fill:url(#Безымянный_градиент_47-2);stroke:url(#Безымянный_градиент_84);}.cls-11{fill:url(#Безымянный_градиент_47-3);stroke:url(#Безымянный_градиент_84-2);}.cls-105,.cls-12,.cls-13,.cls-14,.cls-37,.cls-38,.cls-39{fill:none;}.cls-101,.cls-105,.cls-106,.cls-12,.cls-13,.cls-14,.cls-33,.cls-34{stroke-width:10px;}.cls-12{stroke:url(#Безымянный_градиент_84-3);}.cls-13{stroke:url(#Безымянный_градиент_84-4);}.cls-14{stroke:url(#Безымянный_градиент_84-5);}.cls-15{fill:url(#Безымянный_градиент_47-4);stroke:url(#Безымянный_градиент_84-6);}.cls-16{fill:url(#Безымянный_градиент_47-5);stroke:url(#Безымянный_градиент_84-7);}.cls-17{fill:url(#Безымянный_градиент_47-6);stroke:url(#Безымянный_градиент_84-8);}.cls-18{fill:url(#Безымянный_градиент_47-7);stroke:url(#Безымянный_градиент_84-9);}.cls-19{fill:url(#Безымянный_градиент_47-8);stroke:url(#Безымянный_градиент_84-10);}.cls-20{fill:url(#Безымянный_градиент_47-9);stroke:url(#Безымянный_градиент_84-11);}.cls-21{fill:url(#Безымянный_градиент_47-10);stroke:url(#Безымянный_градиент_84-12);}.cls-22{fill:url(#Безымянный_градиент_47-11);stroke:url(#Безымянный_градиент_84-13);}.cls-23{fill:url(#Безымянный_градиент_47-12);stroke:url(#Безымянный_градиент_84-14);}.cls-24{fill:url(#Безымянный_градиент_47-13);stroke:url(#Безымянный_градиент_84-15);}.cls-25{fill:url(#Безымянный_градиент_47-14);stroke:url(#Безымянный_градиент_84-16);}.cls-26{fill:url(#Безымянный_градиент_47-15);stroke:url(#Безымянный_градиент_84-17);}.cls-27{fill:url(#Безымянный_градиент_47-16);stroke:url(#Безымянный_градиент_84-18);}.cls-28{fill:url(#Безымянный_градиент_47-17);stroke:url(#Безымянный_градиент_84-19);}.cls-29{fill:url(#Безымянный_градиент_47-18);stroke:url(#Безымянный_градиент_84-20);}.cls-30{fill:url(#Безымянный_градиент_47-19);stroke:url(#Безымянный_градиент_84-21);}.cls-31{fill:url(#Безымянный_градиент_47-20);stroke:url(#Безымянный_градиент_84-22);}.cls-32{fill:url(#Безымянный_градиент_47-21);stroke:url(#Безымянный_градиент_84-23);}.cls-33{fill:url(#Безымянный_градиент_47-22);stroke:url(#Безымянный_градиент_84-24);}.cls-34{fill:url(#Безымянный_градиент_47-23);stroke:url(#Безымянный_градиент_84-25);}.cls-35{fill:url(#Безымянный_градиент_47-24);stroke:url(#Безымянный_градиент_84-26);}.cls-36{fill:url(#Безымянный_градиент_47-25);stroke:url(#Безымянный_градиент_84-27);}.cls-107,.cls-37,.cls-38,.cls-39{stroke-width:6px;}.cls-37{stroke:url(#Безымянный_градиент_84-28);}.cls-38{stroke:url(#Безымянный_градиент_84-29);}.cls-39{stroke:url(#Безымянный_градиент_84-30);}.cls-40{fill:url(#Безымянный_градиент_47-26);stroke:url(#Безымянный_градиент_84-31);}.cls-41{fill:url(#Безымянный_градиент_47-27);stroke:url(#Безымянный_градиент_84-32);}.cls-42{fill:url(#Безымянный_градиент_47-28);stroke:url(#Безымянный_градиент_84-33);}.cls-43{fill:url(#Безымянный_градиент_47-29);stroke:url(#Безымянный_градиент_84-34);}.cls-44{fill:url(#Безымянный_градиент_47-30);stroke:url(#Безымянный_градиент_84-35);}.cls-45{fill:url(#Безымянный_градиент_47-31);stroke:url(#Безымянный_градиент_84-36);}.cls-46{fill:url(#Безымянный_градиент_47-32);stroke:url(#Безымянный_градиент_84-37);}.cls-47{fill:url(#Безымянный_градиент_47-33);stroke:url(#Безымянный_градиент_84-38);}.cls-48{fill:url(#Безымянный_градиент_47-34);stroke:url(#Безымянный_градиент_84-39);}.cls-49{fill:url(#Безымянный_градиент_47-35);stroke:url(#Безымянный_градиент_84-40);}.cls-50{fill:url(#Безымянный_градиент_47-36);stroke:url(#Безымянный_градиент_84-41);}.cls-51{fill:url(#Безымянный_градиент_47-37);stroke:url(#Безымянный_градиент_84-42);}.cls-52{fill:url(#Безымянный_градиент_47-38);stroke:url(#Безымянный_градиент_84-43);}.cls-53{fill:url(#Безымянный_градиент_47-39);stroke:url(#Безымянный_градиент_84-44);}.cls-54{fill:url(#Безымянный_градиент_47-40);stroke:url(#Безымянный_градиент_84-45);}.cls-55{fill:url(#Безымянный_градиент_47-41);stroke:url(#Безымянный_градиент_84-46);}.cls-56{fill:url(#Безымянный_градиент_47-42);stroke:url(#Безымянный_градиент_84-47);}.cls-57{fill:url(#Безымянный_градиент_47-43);stroke:url(#Безымянный_градиент_84-48);}.cls-58{fill:url(#Безымянный_градиент_47-44);stroke:url(#Безымянный_градиент_84-49);}.cls-59{fill:url(#Безымянный_градиент_47-45);stroke:url(#Безымянный_градиент_84-50);}.cls-60{fill:url(#Безымянный_градиент_47-46);stroke:url(#Безымянный_градиент_84-51);}.cls-61{fill:url(#Безымянный_градиент_47-47);stroke:url(#Безымянный_градиент_84-52);}.cls-62{fill:url(#Безымянный_градиент_47-48);stroke:url(#Безымянный_градиент_84-53);}.cls-63{fill:url(#Безымянный_градиент_47-49);stroke:url(#Безымянный_градиент_84-54);}.cls-64{fill:url(#Безымянный_градиент_47-50);stroke:url(#Безымянный_градиент_84-55);}.cls-65{fill:url(#Безымянный_градиент_47-51);stroke:url(#Безымянный_градиент_84-56);}.cls-66{fill:url(#Безымянный_градиент_47-52);stroke:url(#Безымянный_градиент_84-57);}.cls-67{fill:url(#Безымянный_градиент_47-53);stroke:url(#Безымянный_градиент_84-58);}.cls-68{fill:url(#Безымянный_градиент_47-54);stroke:url(#Безымянный_градиент_84-59);}.cls-69{fill:url(#Безымянный_градиент_47-55);stroke:url(#Безымянный_градиент_84-60);}.cls-70{fill:url(#Безымянный_градиент_47-56);stroke:url(#Безымянный_градиент_84-61);}.cls-71{fill:url(#Безымянный_градиент_47-57);stroke:url(#Безымянный_градиент_84-62);}.cls-72{fill:url(#Безымянный_градиент_47-58);stroke:url(#Безымянный_градиент_84-63);}.cls-73{fill:url(#Безымянный_градиент_47-59);stroke:url(#Безымянный_градиент_84-64);}.cls-74{fill:url(#Безымянный_градиент_47-60);stroke:url(#Безымянный_градиент_84-65);}.cls-75{fill:url(#Безымянный_градиент_47-61);stroke:url(#Безымянный_градиент_84-66);}.cls-76{fill:url(#Безымянный_градиент_47-62);stroke:url(#Безымянный_градиент_84-67);}.cls-77{fill:url(#Безымянный_градиент_47-63);stroke:url(#Безымянный_градиент_84-68);}.cls-78{fill:url(#Безымянный_градиент_47-64);stroke:url(#Безымянный_градиент_84-69);}.cls-79{fill:url(#Безымянный_градиент_47-65);stroke:url(#Безымянный_градиент_84-70);}.cls-80{fill:url(#Безымянный_градиент_47-66);stroke:url(#Безымянный_градиент_84-71);}.cls-81{fill:url(#Безымянный_градиент_47-67);stroke:url(#Безымянный_градиент_84-72);}.cls-82{fill:url(#Безымянный_градиент_47-68);stroke:url(#Безымянный_градиент_84-73);}.cls-83{fill:url(#Безымянный_градиент_47-69);stroke:url(#Безымянный_градиент_84-74);}.cls-84{fill:url(#Безымянный_градиент_47-70);stroke:url(#Безымянный_градиент_84-75);}.cls-85{fill:url(#Безымянный_градиент_47-71);stroke:url(#Безымянный_градиент_84-76);}.cls-86{fill:url(#Безымянный_градиент_47-72);stroke:url(#Безымянный_градиент_84-77);}.cls-87{fill:url(#Безымянный_градиент_47-73);stroke:url(#Безымянный_градиент_84-78);}.cls-88{fill:url(#Безымянный_градиент_47-74);stroke:url(#Безымянный_градиент_84-79);}.cls-89{fill:url(#Безымянный_градиент_47-75);stroke:url(#Безымянный_градиент_84-80);}.cls-90{fill:url(#Безымянный_градиент_47-76);stroke:url(#Безымянный_градиент_84-81);}.cls-91{fill:url(#Безымянный_градиент_47-77);stroke:url(#Безымянный_градиент_84-82);}.cls-92{fill:url(#Безымянный_градиент_47-78);stroke:url(#Безымянный_градиент_84-83);}.cls-93{fill:url(#Безымянный_градиент_47-79);stroke:url(#Безымянный_градиент_84-84);}.cls-94{fill:url(#Безымянный_градиент_47-80);stroke:url(#Безымянный_градиент_84-85);}.cls-95{fill:url(#Безымянный_градиент_47-81);stroke:url(#Безымянный_градиент_84-86);}.cls-96{fill:url(#Безымянный_градиент_47-82);stroke:url(#Безымянный_градиент_84-87);}.cls-97{fill:url(#Безымянный_градиент_47-83);stroke:url(#Безымянный_градиент_84-88);}.cls-98{fill:url(#Безымянный_градиент_47-84);stroke:url(#Безымянный_градиент_84-89);}.cls-99{fill:url(#Безымянный_градиент_47-85);stroke:url(#Безымянный_градиент_84-90);}.cls-100{fill:url(#Безымянный_градиент_47-86);stroke:url(#Безымянный_градиент_84-91);}.cls-101{fill:url(#Безымянный_градиент_47-87);stroke:url(#Безымянный_градиент_84-92);}.cls-102{opacity:0.36;}.cls-103{fill:#ffdb08;}.cls-103,.cls-104,.cls-105,.cls-106,.cls-107{stroke:#fff;}</style><linearGradient id="Безымянный_градиент_46" x1="2213.66" y1="1033.69" x2="2115.1" y2="5104.13" gradientUnits="userSpaceOnUse"><stop offset="0.32" stop-color="#f0c"/><stop offset="0.36" stop-color="#df00ec"/><stop offset="0.39" stop-color="#c0f"/><stop offset="0.41" stop-color="#c200ff"/><stop offset="0.44" stop-color="#a600ff"/><stop offset="0.45" stop-color="#90f"/><stop offset="0.46" stop-color="#8c00ff"/><stop offset="0.49" stop-color="#6a00ff"/><stop offset="0.53" stop-color="#30f"/><stop offset="0.55" stop-color="blue"/></linearGradient><linearGradient id="Безымянный_градиент_47" x1="2591.99" y1="1042.86" x2="2493.43" y2="5113.29" gradientUnits="userSpaceOnUse"><stop offset="0.33" stop-color="#f0c"/><stop offset="0.36" stop-color="#df00ec"/><stop offset="0.39" stop-color="#c0f"/><stop offset="0.41" stop-color="#c200ff"/><stop offset="0.44" stop-color="#a600ff"/><stop offset="0.45" stop-color="#90f"/><stop offset="0.46" stop-color="#8c00ff"/><stop offset="0.5" stop-color="#6a00ff"/><stop offset="0.54" stop-color="#30f"/><stop offset="0.55" stop-color="blue"/></linearGradient><linearGradient id="Безымянный_градиент_49" x1="2944.1" y1="1051.38" x2="2845.54" y2="5121.81" gradientUnits="userSpaceOnUse"><stop offset="0.33" stop-color="#f0c"/><stop offset="0.37" stop-color="#df00ec"/><stop offset="0.39" stop-color="#c0f"/><stop offset="0.41" stop-color="#c200ff"/><stop offset="0.44" stop-color="#a600ff"/><stop offset="0.45" stop-color="#90f"/><stop offset="0.46" stop-color="#8c00ff"/><stop offset="0.49" stop-color="#6a00ff"/><stop offset="0.53" stop-color="#30f"/><stop offset="0.55" stop-color="blue"/></linearGradient><linearGradient id="Безымянный_градиент_50" x1="3328.72" y1="1060.69" x2="3230.16" y2="5131.13" gradientUnits="userSpaceOnUse"><stop offset="0.33" stop-color="#f0c"/><stop offset="0.37" stop-color="#df00ec"/><stop offset="0.39" stop-color="#c0f"/><stop offset="0.41" stop-color="#c200ff"/><stop offset="0.44" stop-color="#a600ff"/><stop offset="0.45" stop-color="#90f"/><stop offset="0.46" stop-color="#8c00ff"/><stop offset="0.49" stop-color="#6a00ff"/><stop offset="0.52" stop-color="#30f"/><stop offset="0.53" stop-color="blue"/></linearGradient><linearGradient id="Безымянный_градиент_51" x1="3869.41" y1="1073.79" x2="3770.85" y2="5144.22" gradientUnits="userSpaceOnUse"><stop offset="0.32" stop-color="#f0c"/><stop offset="0.36" stop-color="#df00ec"/><stop offset="0.39" stop-color="#c0f"/><stop offset="0.41" stop-color="#c200ff"/><stop offset="0.44" stop-color="#a600ff"/><stop offset="0.45" stop-color="#90f"/><stop offset="0.46" stop-color="#8c00ff"/><stop offset="0.48" stop-color="#6a00ff"/><stop offset="0.5" stop-color="#30f"/><stop offset="0.52" stop-color="blue"/></linearGradient><linearGradient id="Безымянный_градиент_93" x1="3537.7" y1="2776.38" x2="4119.12" y2="2776.38" gradientUnits="userSpaceOnUse"><stop offset="0" stop-color="#f0c"/><stop offset="0.06" stop-color="#ff32d6"/><stop offset="0.32" stop-color="#fff"/><stop offset="0.55" stop-color="#c0f"/><stop offset="0.64" stop-color="#c200ff"/><stop offset="0.79" stop-color="#a600ff"/><stop offset="0.85" stop-color="#90f"/><stop offset="0.87" stop-color="#8c00ff"/><stop offset="0.91" stop-color="#6900ff"/><stop offset="0.96" stop-color="#3200ff"/><stop offset="1" stop-color="blue"/></linearGradient><linearGradient id="Безымянный_градиент_41" x1="3506.02" y1="2723.98" x2="3506.02" y2="2723.98" gradientUnits="userSpaceOnUse"><stop offset="0.33" stop-color="#f0c"/><stop offset="0.36" stop-color="#df00ec"/><stop offset="0.39" stop-color="#c0f"/><stop offset="0.41" stop-color="#c200ff"/><stop offset="0.44" stop-color="#a600ff"/><stop offset="0.45" stop-color="#90f"/><stop offset="0.48" stop-color="#8c00ff"/><stop offset="0.53" stop-color="#6a00ff"/><stop offset="0.6" stop-color="#30f"/><stop offset="1" stop-color="blue"/></linearGradient><linearGradient id="Безымянный_градиент_47-2" x1="1182.31" y1="2958.48" x2="1219.16" y2="2958.48" gradientTransform="matrix(0.93, -0.39, 0.37, 0.97, -994.17, 509.33)" xlink:href="#Безымянный_градиент_47"/><linearGradient id="Безымянный_градиент_84" x1="1198.91" y1="2914.5" x2="1237.65" y2="2914.5" gradientTransform="translate(-994.17 659.02) rotate(-21.76)" xlink:href="#Безымянный_градиент_93"/><linearGradient id="Безымянный_градиент_47-3" x1="1965.74" y1="3532.51" x2="2002.15" y2="3532.51" gradientTransform="matrix(-0.93, -0.41, 0.36, -1.08, 2346.43, 7523.94)" xlink:href="#Безымянный_градиент_47"/><linearGradient id="Безымянный_градиент_84-2" x1="1727.39" y1="2911.44" x2="1767.74" y2="2911.44" gradientTransform="translate(2346.43 6257.11) rotate(-159.17)" xlink:href="#Безымянный_градиент_93"/><linearGradient id="Безымянный_градиент_84-3" x1="1402.53" y1="2349.78" x2="1555.91" y2="2349.78" xlink:href="#Безымянный_градиент_93"/><linearGradient id="Безымянный_градиент_84-4" x1="1420.85" y1="2398.28" x2="1543.81" y2="2398.28" xlink:href="#Безымянный_градиент_93"/><linearGradient id="Безымянный_градиент_84-5" x1="1443.38" y1="2443.66" x2="1529.72" y2="2443.66" xlink:href="#Безымянный_градиент_93"/><linearGradient id="Безымянный_градиент_47-4" x1="1393.43" y1="2526.24" x2="1574.66" y2="2526.24" xlink:href="#Безымянный_градиент_47"/><linearGradient id="Безымянный_градиент_84-6" x1="1392.93" y1="2526.24" x2="1575.16" y2="2526.24" xlink:href="#Безымянный_градиент_93"/><linearGradient id="Безымянный_градиент_47-5" x1="1473.74" y1="2484.91" x2="1497.66" y2="2484.91" xlink:href="#Безымянный_градиент_47"/><linearGradient id="Безымянный_градиент_84-7" x1="1473.24" y1="2484.91" x2="1498.16" y2="2484.91" xlink:href="#Безымянный_градиент_93"/><linearGradient id="Безымянный_градиент_47-6" x1="1473.74" y1="2525.44" x2="1497.66" y2="2525.44" xlink:href="#Безымянный_градиент_47"/><linearGradient id="Безымянный_градиент_84-8" x1="1473.24" y1="2525.44" x2="1498.16" y2="2525.44" xlink:href="#Безымянный_градиент_93"/><linearGradient id="Безымянный_градиент_47-7" x1="1473.68" y1="2493.46" x2="1497.38" y2="2493.46" xlink:href="#Безымянный_градиент_47"/><linearGradient id="Безымянный_градиент_84-9" x1="1473.18" y1="2493.46" x2="1497.88" y2="2493.46" xlink:href="#Безымянный_градиент_93"/><linearGradient id="Безымянный_градиент_47-8" x1="281.5" y1="176.42" x2="312.2" y2="176.42" xlink:href="#Безымянный_градиент_47"/><linearGradient id="Безымянный_градиент_84-10" x1="281.17" y1="176.42" x2="312.52" y2="176.42" xlink:href="#Безымянный_градиент_93"/><linearGradient id="Безымянный_градиент_47-9" x1="321.8" y1="170.03" x2="321.8" y2="170.03" xlink:href="#Безымянный_градиент_47"/><linearGradient id="Безымянный_градиент_84-11" x1="321.3" y1="170.03" x2="322.3" y2="170.03" xlink:href="#Безымянный_градиент_93"/><linearGradient id="Безымянный_градиент_47-10" x1="329.93" y1="182.37" x2="370.48" y2="182.37" xlink:href="#Безымянный_градиент_47"/><linearGradient id="Безымянный_градиент_84-12" x1="329.59" y1="182.37" x2="370.82" y2="182.37" xlink:href="#Безымянный_градиент_93"/><linearGradient id="Безымянный_градиент_47-11" x1="1412.85" y1="2572.62" x2="1559.64" y2="2572.62" xlink:href="#Безымянный_градиент_47"/><linearGradient id="Безымянный_градиент_84-13" x1="1412.41" y1="2572.73" x2="1560.05" y2="2572.73" xlink:href="#Безымянный_градиент_93"/><linearGradient id="Безымянный_градиент_47-12" x1="291.37" y1="267.15" x2="291.37" y2="267.15" xlink:href="#Безымянный_градиент_47"/><linearGradient id="Безымянный_градиент_84-14" x1="290.87" y1="267.15" x2="291.87" y2="267.15" xlink:href="#Безымянный_градиент_93"/><linearGradient id="Безымянный_градиент_47-13" x1="320.09" y1="270.97" x2="320.09" y2="270.97" xlink:href="#Безымянный_градиент_47"/><linearGradient id="Безымянный_градиент_84-15" x1="319.59" y1="270.97" x2="320.59" y2="270.97" xlink:href="#Безымянный_градиент_93"/><linearGradient id="Безымянный_градиент_47-14" x1="352.61" y1="268.03" x2="352.61" y2="268.03" xlink:href="#Безымянный_градиент_47"/><linearGradient id="Безымянный_градиент_84-16" x1="352.11" y1="268.03" x2="353.11" y2="268.03" xlink:href="#Безымянный_градиент_93"/><linearGradient id="Безымянный_градиент_47-15" x1="173.56" y1="302.46" x2="191.45" y2="302.46" xlink:href="#Безымянный_градиент_47"/><linearGradient id="Безымянный_градиент_84-17" x1="173.06" y1="302.46" x2="191.95" y2="302.46" xlink:href="#Безымянный_градиент_93"/><linearGradient id="Безымянный_градиент_47-16" x1="239.1" y1="314.07" x2="256.99" y2="314.07" xlink:href="#Безымянный_градиент_47"/><linearGradient id="Безымянный_градиент_84-18" x1="238.6" y1="314.07" x2="257.49" y2="314.07" xlink:href="#Безымянный_градиент_93"/><linearGradient id="Безымянный_градиент_47-17" x1="312.85" y1="314.07" x2="330.74" y2="314.07" xlink:href="#Безымянный_градиент_47"/><linearGradient id="Безымянный_градиент_84-19" x1="312.35" y1="314.07" x2="331.24" y2="314.07" xlink:href="#Безымянный_градиент_93"/><linearGradient id="Безымянный_градиент_47-18" x1="392.87" y1="311.41" x2="410.76" y2="311.41" xlink:href="#Безымянный_градиент_47"/><linearGradient id="Безымянный_градиент_84-20" x1="392.37" y1="311.41" x2="411.26" y2="311.41" xlink:href="#Безымянный_градиент_93"/><linearGradient id="Безымянный_градиент_47-19" x1="449.14" y1="301.87" x2="467.03" y2="301.87" xlink:href="#Безымянный_градиент_47"/><linearGradient id="Безымянный_градиент_84-21" x1="448.64" y1="301.87" x2="467.53" y2="301.87" xlink:href="#Безымянный_градиент_93"/><linearGradient id="Безымянный_градиент_47-20" x1="1312.08" y1="2639.48" x2="1655.5" y2="2639.48" xlink:href="#Безымянный_градиент_47"/><linearGradient id="Безымянный_градиент_84-22" x1="1312" y1="2639.48" x2="1656" y2="2639.48" xlink:href="#Безымянный_градиент_93"/><linearGradient id="Безымянный_градиент_47-21" x1="153.44" y1="395.7" x2="191.45" y2="395.7" xlink:href="#Безымянный_градиент_47"/><linearGradient id="Безымянный_градиент_84-23" x1="152.93" y1="395.66" x2="191.96" y2="395.66" xlink:href="#Безымянный_градиент_93"/><linearGradient id="Безымянный_градиент_47-22" x1="205.68" y1="398.65" x2="205.68" y2="398.65" xlink:href="#Безымянный_градиент_47"/><linearGradient id="Безымянный_градиент_84-24" x1="200.68" y1="398.65" x2="210.68" y2="398.65" xlink:href="#Безымянный_градиент_93"/><linearGradient id="Безымянный_градиент_47-23" x1="1582.62" y1="2961.21" x2="1582.84" y2="2961.21" gradientTransform="matrix(1, 0, 0, 1.07, -1163.81, -2783.92)" xlink:href="#Безымянный_градиент_47"/><linearGradient id="Безымянный_градиент_84-25" x1="1577.63" y1="2961.21" x2="1587.83" y2="2961.21" gradientTransform="matrix(1, 0, 0, 1.07, -1163.81, -2783.92)" xlink:href="#Безымянный_градиент_93"/><linearGradient id="Безымянный_градиент_47-24" x1="242.33" y1="403.12" x2="384.58" y2="403.12" xlink:href="#Безымянный_градиент_47"/><linearGradient id="Безымянный_градиент_84-26" x1="241.83" y1="403.12" x2="385.08" y2="403.12" xlink:href="#Безымянный_градиент_93"/><linearGradient id="Безымянный_градиент_47-25" x1="433.38" y1="396.28" x2="487.16" y2="396.28" xlink:href="#Безымянный_градиент_47"/><linearGradient id="Безымянный_градиент_84-27" x1="432.88" y1="396.25" x2="487.66" y2="396.25" xlink:href="#Безымянный_градиент_93"/><linearGradient id="Безымянный_градиент_84-28" x1="1330.53" y1="2950.06" x2="1388.99" y2="2950.06" xlink:href="#Безымянный_градиент_93"/><linearGradient id="Безымянный_градиент_84-29" x1="1404.13" y1="2962.58" x2="1562.81" y2="2962.58" xlink:href="#Безымянный_градиент_93"/><linearGradient id="Безымянный_градиент_84-30" x1="1579.8" y1="2947.99" x2="1637.49" y2="2947.99" xlink:href="#Безымянный_градиент_93"/><linearGradient id="Безымянный_градиент_47-26" x1="1185.17" y1="2848.61" x2="1770.25" y2="2848.61" xlink:href="#Безымянный_градиент_47"/><linearGradient id="Безымянный_градиент_84-31" x1="1184.67" y1="2848.59" x2="1770.75" y2="2848.59" xlink:href="#Безымянный_градиент_93"/><linearGradient id="Безымянный_градиент_47-27" x1="125.62" y1="534.94" x2="166.55" y2="534.94" xlink:href="#Безымянный_градиент_47"/><linearGradient id="Безымянный_градиент_84-32" x1="125.12" y1="534.94" x2="167.05" y2="534.94" xlink:href="#Безымянный_градиент_93"/><linearGradient id="Безымянный_градиент_47-28" x1="260.58" y1="516.51" x2="301.51" y2="516.51" xlink:href="#Безымянный_градиент_47"/><linearGradient id="Безымянный_градиент_84-33" x1="260.08" y1="516.51" x2="302.01" y2="516.51" xlink:href="#Безымянный_градиент_93"/><linearGradient id="Безымянный_градиент_47-29" x1="469.49" y1="538.1" x2="510.42" y2="538.1" xlink:href="#Безымянный_градиент_47"/><linearGradient id="Безымянный_градиент_84-34" x1="468.99" y1="538.1" x2="510.92" y2="538.1" xlink:href="#Безымянный_градиент_93"/><linearGradient id="Безымянный_градиент_47-30" x1="336.32" y1="517.63" x2="377.25" y2="517.63" xlink:href="#Безымянный_градиент_47"/><linearGradient id="Безымянный_градиент_84-35" x1="335.82" y1="517.63" x2="377.75" y2="517.63" xlink:href="#Безымянный_градиент_93"/><linearGradient id="Безымянный_градиент_47-31" x1="1183.75" y1="2995.71" x2="1183.75" y2="2995.71" xlink:href="#Безымянный_градиент_47"/><linearGradient id="Безымянный_градиент_84-36" x1="1183.75" y1="2995.71" x2="1183.75" y2="2995.71" xlink:href="#Безымянный_градиент_93"/><linearGradient id="Безымянный_градиент_47-32" x1="1207.5" y1="2997.86" x2="1210.48" y2="2997.86" gradientTransform="translate(1493.73 -222.04) rotate(27.02)" xlink:href="#Безымянный_градиент_47"/><linearGradient id="Безымянный_градиент_84-37" x1="1206.83" y1="2997.86" x2="1211.16" y2="2997.86" gradientTransform="translate(1493.73 -222.04) rotate(27.02)" xlink:href="#Безымянный_градиент_93"/><linearGradient id="Безымянный_градиент_47-33" x1="18.34" y1="636.56" x2="41.81" y2="636.56" xlink:href="#Безымянный_градиент_47"/><linearGradient id="Безымянный_градиент_84-38" x1="17.68" y1="636.56" x2="42.47" y2="636.56" xlink:href="#Безымянный_градиент_93"/><linearGradient id="Безымянный_градиент_47-34" x1="44.96" y1="642.23" x2="99.23" y2="642.23" xlink:href="#Безымянный_градиент_47"/><linearGradient id="Безымянный_градиент_84-39" x1="44.25" y1="642.23" x2="99.93" y2="642.23" xlink:href="#Безымянный_градиент_93"/><linearGradient id="Безымянный_градиент_47-35" x1="1260.73" y1="2930.93" x2="1314.64" y2="2930.93" gradientTransform="translate(-1759.24 1942.89) rotate(-48.31)" xlink:href="#Безымянный_градиент_47"/><linearGradient id="Безымянный_градиент_84-40" x1="1260.23" y1="2930.82" x2="1315.14" y2="2930.82" gradientTransform="translate(-1759.24 1942.89) rotate(-48.31)" xlink:href="#Безымянный_градиент_93"/><linearGradient id="Безымянный_градиент_47-36" x1="1165.31" y1="3001.47" x2="1229.71" y2="3001.47" xlink:href="#Безымянный_градиент_47"/><linearGradient id="Безымянный_градиент_84-41" x1="1164.81" y1="3001.47" x2="1230.21" y2="3001.47" xlink:href="#Безымянный_градиент_93"/><linearGradient id="Безымянный_градиент_47-37" x1="595.31" y1="635.97" x2="617.06" y2="635.97" xlink:href="#Безымянный_градиент_47"/><linearGradient id="Безымянный_градиент_84-42" x1="594.66" y1="635.97" x2="617.71" y2="635.97" xlink:href="#Безымянный_градиент_93"/><linearGradient id="Безымянный_градиент_47-38" x1="537.95" y1="640.54" x2="589.95" y2="640.54" xlink:href="#Безымянный_градиент_47"/><linearGradient id="Безымянный_градиент_84-43" x1="537.25" y1="640.54" x2="590.65" y2="640.54" xlink:href="#Безымянный_градиент_93"/><linearGradient id="Безымянный_градиент_47-39" x1="1652.33" y1="2929.8" x2="1705.77" y2="2929.8" gradientTransform="translate(660.27 6153.22) rotate(-132.62)" xlink:href="#Безымянный_градиент_47"/><linearGradient id="Безымянный_градиент_84-44" x1="1651.83" y1="2929.7" x2="1706.27" y2="2929.7" gradientTransform="translate(660.27 6153.22) rotate(-132.62)" xlink:href="#Безымянный_градиент_93"/><linearGradient id="Безымянный_градиент_47-40" x1="1789.45" y1="2997.85" x2="1799.93" y2="2997.85" xlink:href="#Безымянный_градиент_47"/><linearGradient id="Безымянный_градиент_84-45" x1="1789.11" y1="2997.8" x2="1800.43" y2="2997.8" xlink:href="#Безымянный_градиент_93"/><linearGradient id="Безымянный_градиент_47-41" x1="1739.22" y1="3000.83" x2="1801.17" y2="3000.83" xlink:href="#Безымянный_градиент_47"/><linearGradient id="Безымянный_градиент_84-46" x1="1738.72" y1="3000.83" x2="1801.67" y2="3000.83" xlink:href="#Безымянный_градиент_93"/><linearGradient id="Безымянный_градиент_47-42" x1="24.79" y1="786.08" x2="30.17" y2="786.08" xlink:href="#Безымянный_градиент_47"/><linearGradient id="Безымянный_градиент_84-47" x1="24.29" y1="786.08" x2="30.67" y2="786.08" xlink:href="#Безымянный_градиент_93"/><linearGradient id="Безымянный_градиент_47-43" x1="71.29" y1="727.32" x2="73.91" y2="727.32" xlink:href="#Безымянный_градиент_47"/><linearGradient id="Безымянный_градиент_84-48" x1="70.79" y1="727.32" x2="74.41" y2="727.32" xlink:href="#Безымянный_градиент_93"/><linearGradient id="Безымянный_градиент_47-44" x1="97.01" y1="830.82" x2="99.35" y2="830.82" xlink:href="#Безымянный_градиент_47"/><linearGradient id="Безымянный_градиент_84-49" x1="96.51" y1="830.82" x2="99.85" y2="830.82" xlink:href="#Безымянный_градиент_93"/><linearGradient id="Безымянный_градиент_47-45" x1="126.52" y1="776.73" x2="132.37" y2="776.73" xlink:href="#Безымянный_градиент_47"/><linearGradient id="Безымянный_градиент_84-50" x1="126.02" y1="776.73" x2="132.87" y2="776.73" xlink:href="#Безымянный_градиент_93"/><linearGradient id="Безымянный_градиент_47-46" x1="1286.84" y1="3160.1" x2="1295.07" y2="3160.1" gradientTransform="translate(-260.17 119.25) rotate(-4.81)" xlink:href="#Безымянный_градиент_47"/><linearGradient id="Безымянный_градиент_84-51" x1="1286.34" y1="3160.1" x2="1295.57" y2="3160.1" gradientTransform="translate(-260.17 119.25) rotate(-4.81)" xlink:href="#Безымянный_градиент_93"/><linearGradient id="Безымянный_градиент_47-47" x1="165.43" y1="772.93" x2="168.35" y2="772.93" xlink:href="#Безымянный_градиент_47"/><linearGradient id="Безымянный_градиент_84-52" x1="164.93" y1="772.93" x2="168.85" y2="772.93" xlink:href="#Безымянный_градиент_93"/><linearGradient id="Безымянный_градиент_47-48" x1="204.6" y1="780.53" x2="210.45" y2="780.53" xlink:href="#Безымянный_градиент_47"/><linearGradient id="Безымянный_градиент_84-53" x1="204.1" y1="780.53" x2="210.95" y2="780.53" xlink:href="#Безымянный_градиент_93"/><linearGradient id="Безымянный_градиент_47-49" x1="175.37" y1="851.28" x2="181.21" y2="851.28" xlink:href="#Безымянный_градиент_47"/><linearGradient id="Безымянный_градиент_84-54" x1="174.87" y1="851.28" x2="181.71" y2="851.28" xlink:href="#Безымянный_градиент_93"/><linearGradient id="Безымянный_градиент_47-50" x1="260.74" y1="844.56" x2="265.71" y2="844.56" xlink:href="#Безымянный_градиент_47"/><linearGradient id="Безымянный_градиент_84-55" x1="260.24" y1="844.56" x2="266.21" y2="844.56" xlink:href="#Безымянный_градиент_93"/><linearGradient id="Безымянный_градиент_47-51" x1="283.84" y1="827.02" x2="287.34" y2="827.02" xlink:href="#Безымянный_градиент_47"/><linearGradient id="Безымянный_градиент_84-56" x1="283.34" y1="827.02" x2="287.84" y2="827.02" xlink:href="#Безымянный_градиент_93"/><linearGradient id="Безымянный_градиент_47-52" x1="316.87" y1="769.42" x2="320.09" y2="769.42" xlink:href="#Безымянный_градиент_47"/><linearGradient id="Безымянный_градиент_84-57" x1="316.37" y1="769.42" x2="320.59" y2="769.42" xlink:href="#Безымянный_градиент_93"/><linearGradient id="Безымянный_градиент_47-53" x1="314.94" y1="849.09" x2="318.48" y2="849.09" xlink:href="#Безымянный_градиент_47"/><linearGradient id="Безымянный_градиент_84-58" x1="314.44" y1="849.09" x2="318.98" y2="849.09" xlink:href="#Безымянный_градиент_93"/><linearGradient id="Безымянный_градиент_47-54" x1="363.36" y1="815.47" x2="367.16" y2="815.47" xlink:href="#Безымянный_градиент_47"/><linearGradient id="Безымянный_градиент_84-59" x1="362.86" y1="815.47" x2="367.66" y2="815.47" xlink:href="#Безымянный_градиент_93"/><linearGradient id="Безымянный_градиент_47-55" x1="401.95" y1="749.24" x2="408.68" y2="749.24" xlink:href="#Безымянный_градиент_47"/><linearGradient id="Безымянный_градиент_84-60" x1="401.45" y1="749.24" x2="409.18" y2="749.24" xlink:href="#Безымянный_градиент_93"/><linearGradient id="Безымянный_градиент_47-56" x1="387.04" y1="844.7" x2="389.09" y2="844.7" xlink:href="#Безымянный_градиент_47"/><linearGradient id="Безымянный_градиент_84-61" x1="386.54" y1="844.7" x2="389.59" y2="844.7" xlink:href="#Безымянный_градиент_93"/><linearGradient id="Безымянный_градиент_47-57" x1="444.35" y1="780.09" x2="446.98" y2="780.09" xlink:href="#Безымянный_градиент_47"/><linearGradient id="Безымянный_градиент_84-62" x1="443.85" y1="780.09" x2="447.48" y2="780.09" xlink:href="#Безымянный_градиент_93"/><linearGradient id="Безымянный_градиент_47-58" x1="449.03" y1="830.01" x2="451.37" y2="830.01" xlink:href="#Безымянный_градиент_47"/><linearGradient id="Безымянный_градиент_84-63" x1="448.53" y1="830.01" x2="451.87" y2="830.01" xlink:href="#Безымянный_градиент_93"/><linearGradient id="Безымянный_градиент_47-59" x1="470.37" y1="851.17" x2="474.46" y2="851.17" xlink:href="#Безымянный_градиент_47"/><linearGradient id="Безымянный_градиент_84-64" x1="469.87" y1="851.17" x2="474.96" y2="851.17" xlink:href="#Безымянный_градиент_93"/><linearGradient id="Безымянный_градиент_47-60" x1="519.49" y1="776.44" x2="523" y2="776.44" xlink:href="#Безымянный_градиент_47"/><linearGradient id="Безымянный_градиент_84-65" x1="518.99" y1="776.44" x2="523.5" y2="776.44" xlink:href="#Безымянный_градиент_93"/><linearGradient id="Безымянный_градиент_47-61" x1="523" y1="827.31" x2="526.21" y2="827.31" xlink:href="#Безымянный_градиент_47"/><linearGradient id="Безымянный_градиент_84-66" x1="522.5" y1="827.31" x2="526.71" y2="827.31" xlink:href="#Безымянный_градиент_93"/><linearGradient id="Безымянный_градиент_47-62" x1="557.2" y1="751.58" x2="560.42" y2="751.58" xlink:href="#Безымянный_градиент_47"/><linearGradient id="Безымянный_градиент_84-67" x1="556.7" y1="751.58" x2="560.92" y2="751.58" xlink:href="#Безымянный_градиент_93"/><linearGradient id="Безымянный_градиент_47-63" x1="580.87" y1="760.79" x2="584.69" y2="760.79" xlink:href="#Безымянный_градиент_47"/><linearGradient id="Безымянный_градиент_84-68" x1="580.37" y1="760.79" x2="585.19" y2="760.79" xlink:href="#Безымянный_градиент_93"/><linearGradient id="Безымянный_градиент_47-64" x1="621.82" y1="785.79" x2="626.27" y2="785.79" xlink:href="#Безымянный_градиент_47"/><linearGradient id="Безымянный_градиент_84-69" x1="621.32" y1="785.79" x2="626.77" y2="785.79" xlink:href="#Безымянный_градиент_93"/><linearGradient id="Безымянный_градиент_47-65" x1="1313.44" y1="3055.89" x2="1345.19" y2="3055.89" xlink:href="#Безымянный_градиент_47"/><linearGradient id="Безымянный_градиент_84-70" x1="1312.94" y1="3055.55" x2="1345.69" y2="3055.55" xlink:href="#Безымянный_градиент_93"/><linearGradient id="Безымянный_градиент_47-66" x1="1397.78" y1="2907.19" x2="1445.96" y2="2907.19" gradientTransform="translate(-1108.81 889.98) rotate(-25.38)" xlink:href="#Безымянный_градиент_47"/><linearGradient id="Безымянный_градиент_84-71" x1="1397.28" y1="2907.19" x2="1446.46" y2="2907.19" gradientTransform="translate(-1108.81 889.98) rotate(-25.38)" xlink:href="#Безымянный_градиент_93"/><linearGradient id="Безымянный_градиент_47-67" x1="134.74" y1="596.14" x2="159.12" y2="596.14" xlink:href="#Безымянный_градиент_47"/><linearGradient id="Безымянный_градиент_84-72" x1="134.24" y1="596.14" x2="159.62" y2="596.14" xlink:href="#Безымянный_градиент_93"/><linearGradient id="Безымянный_градиент_47-68" x1="1339.5" y1="2997.56" x2="1409.83" y2="2997.56" xlink:href="#Безымянный_градиент_47"/><linearGradient id="Безымянный_градиент_84-73" x1="1339" y1="2996.77" x2="1409.94" y2="2996.77" xlink:href="#Безымянный_градиент_93"/><linearGradient id="Безымянный_градиент_47-69" x1="1346.97" y1="3024.19" x2="1381.72" y2="3024.19" xlink:href="#Безымянный_градиент_47"/><linearGradient id="Безымянный_градиент_84-74" x1="1346.47" y1="3023.17" x2="1384.01" y2="3023.17" xlink:href="#Безымянный_градиент_93"/><linearGradient id="Безымянный_градиент_47-70" x1="1329.9" y1="3053.92" x2="1341.08" y2="3053.92" xlink:href="#Безымянный_градиент_47"/><linearGradient id="Безымянный_градиент_84-75" x1="1328.09" y1="3053.76" x2="1341.58" y2="3053.76" xlink:href="#Безымянный_градиент_93"/><linearGradient id="Безымянный_градиент_47-71" x1="1307.09" y1="3013.95" x2="1320" y2="3013.95" xlink:href="#Безымянный_градиент_47"/><linearGradient id="Безымянный_градиент_84-76" x1="1303.98" y1="3013.3" x2="1322.83" y2="3013.3" xlink:href="#Безымянный_градиент_93"/><linearGradient id="Безымянный_градиент_47-72" x1="1306.52" y1="3054.71" x2="1319.68" y2="3054.71" xlink:href="#Безымянный_градиент_47"/><linearGradient id="Безымянный_градиент_84-77" x1="1303.68" y1="3054.59" x2="1319.73" y2="3054.59" xlink:href="#Безымянный_градиент_93"/><linearGradient id="Безымянный_градиент_47-73" x1="1283.91" y1="3065.94" x2="1311.3" y2="3065.94" xlink:href="#Безымянный_градиент_47"/><linearGradient id="Безымянный_градиент_84-78" x1="1283.41" y1="3065.91" x2="1313.46" y2="3065.91" xlink:href="#Безымянный_градиент_93"/><linearGradient id="Безымянный_градиент_47-74" x1="1349.48" y1="3066.25" x2="1371.73" y2="3066.25" xlink:href="#Безымянный_градиент_47"/><linearGradient id="Безымянный_градиент_84-79" x1="1346.01" y1="3066.22" x2="1372.23" y2="3066.22" xlink:href="#Безымянный_градиент_93"/><linearGradient id="Безымянный_градиент_47-75" x1="1279.15" y1="3071.35" x2="1375.87" y2="3071.35" xlink:href="#Безымянный_градиент_47"/><linearGradient id="Безымянный_градиент_84-80" x1="1278.65" y1="3071.35" x2="1376.37" y2="3071.35" xlink:href="#Безымянный_градиент_93"/><linearGradient id="Безымянный_градиент_47-76" x1="1520.21" y1="2907.82" x2="1568.39" y2="2907.82" gradientTransform="translate(1693.27 6196.9) rotate(-154.62)" xlink:href="#Безымянный_градиент_47"/><linearGradient id="Безымянный_градиент_84-81" x1="1519.71" y1="2907.82" x2="1568.89" y2="2907.82" gradientTransform="translate(1693.27 6196.9) rotate(-154.62)" xlink:href="#Безымянный_градиент_93"/><linearGradient id="Безымянный_градиент_47-77" x1="1642.24" y1="2932.92" x2="1666.62" y2="2932.92" gradientTransform="translate(3308.86 5865.84) rotate(180)" xlink:href="#Безымянный_градиент_47"/><linearGradient id="Безымянный_градиент_84-82" x1="1641.74" y1="2932.92" x2="1667.12" y2="2932.92" gradientTransform="translate(3308.86 5865.84) rotate(180)" xlink:href="#Безымянный_градиент_93"/><linearGradient id="Безымянный_градиент_47-78" x1="1584.45" y1="3024.82" x2="1619.2" y2="3024.82" xlink:href="#Безымянный_градиент_47"/><linearGradient id="Безымянный_градиент_84-83" x1="1582.16" y1="3023.8" x2="1619.7" y2="3023.8" xlink:href="#Безымянный_градиент_93"/><linearGradient id="Безымянный_градиент_47-79" x1="1625.09" y1="3054.55" x2="1636.27" y2="3054.55" xlink:href="#Безымянный_градиент_47"/><linearGradient id="Безымянный_градиент_84-84" x1="1624.59" y1="3054.39" x2="1638.08" y2="3054.39" xlink:href="#Безымянный_градиент_93"/><linearGradient id="Безымянный_градиент_47-80" x1="1646.17" y1="3014.58" x2="1659.08" y2="3014.58" xlink:href="#Безымянный_градиент_47"/><linearGradient id="Безымянный_градиент_84-85" x1="1643.33" y1="3013.93" x2="1662.19" y2="3013.93" xlink:href="#Безымянный_градиент_93"/><linearGradient id="Безымянный_градиент_47-81" x1="1646.49" y1="3055.34" x2="1659.64" y2="3055.34" xlink:href="#Безымянный_градиент_47"/><linearGradient id="Безымянный_градиент_84-86" x1="1646.44" y1="3055.22" x2="1662.49" y2="3055.22" xlink:href="#Безымянный_градиент_93"/><linearGradient id="Безымянный_градиент_47-82" x1="1556.34" y1="2998.19" x2="1626.66" y2="2998.19" xlink:href="#Безымянный_градиент_47"/><linearGradient id="Безымянный_градиент_84-87" x1="1556.23" y1="2997.4" x2="1627.16" y2="2997.4" xlink:href="#Безымянный_градиент_93"/><linearGradient id="Безымянный_градиент_47-83" x1="1620.98" y1="3059.51" x2="1652.72" y2="3059.51" xlink:href="#Безымянный_градиент_47"/><linearGradient id="Безымянный_градиент_84-88" x1="1620.48" y1="3059.17" x2="1653.22" y2="3059.17" xlink:href="#Безымянный_градиент_93"/><linearGradient id="Безымянный_градиент_47-84" x1="1653.06" y1="3065.94" x2="1680.45" y2="3065.94" xlink:href="#Безымянный_градиент_47"/><linearGradient id="Безымянный_градиент_84-89" x1="1650.9" y1="3065.91" x2="1680.95" y2="3065.91" xlink:href="#Безымянный_градиент_93"/><linearGradient id="Безымянный_градиент_47-85" x1="1592.63" y1="3066.25" x2="1614.88" y2="3066.25" xlink:href="#Безымянный_градиент_47"/><linearGradient id="Безымянный_градиент_84-90" x1="1592.13" y1="3066.22" x2="1618.35" y2="3066.22" xlink:href="#Безымянный_градиент_93"/><linearGradient id="Безымянный_градиент_47-86" x1="1588.49" y1="3071.35" x2="1685.21" y2="3071.35" xlink:href="#Безымянный_градиент_47"/><linearGradient id="Безымянный_градиент_84-91" x1="1587.99" y1="3071.35" x2="1685.71" y2="3071.35" xlink:href="#Безымянный_градиент_93"/><linearGradient id="Безымянный_градиент_47-87" x1="202.46" y1="350.55" x2="418.55" y2="350.55" xlink:href="#Безымянный_градиент_47"/><linearGradient id="Безымянный_градиент_84-92" x1="202.46" y1="350.55" x2="418.55" y2="350.55" xlink:href="#Безымянный_градиент_93"/></defs><path class="cls-1" d="M2327.27,2643.81q-8.2-.9-16.4-7.29a71.42,71.42,0,0,1-14.13-14.58,55.81,55.81,0,0,1-8.65-18.23,44.58,44.58,0,0,1-.91-20q2.73-18.23,15-49.66a343.58,343.58,0,0,1,33.26-63.33q-31-7.28-69.71,8.66T2193.33,2529q-33.72,33.72-56.5,81.09t-22.78,103a119.91,119.91,0,0,0,3.65,31,219,219,0,0,1,41.46-16.4,238.15,238.15,0,0,1,48.74-8.2,160.24,160.24,0,0,1,38.27.91q18.23,2.74,31.9,10.48a60.37,60.37,0,0,1,21.86,21q8.21,13.21,8.2,31.44,0,9.11-6.37,19.13t-10.94,10c-4.87,0-7.29-2.42-7.29-7.29v-3.64q0-11.83-14.58-15a121.77,121.77,0,0,0-25.51-3.18q-14.58,0-37.81,10t-48.75,27.33a408.45,408.45,0,0,0-51,41.46,354.84,354.84,0,0,0-45.56,52.39,247.53,247.53,0,0,0-31.43,60.14,152.6,152.6,0,0,0-8.66,64.7q.9,19.13,9.11,32.34A74,74,0,0,0,2048.9,3093a76.78,76.78,0,0,0,24.61,11.84,91.74,91.74,0,0,0,24.14,3.65q21.87,0,49.21-14.13t55.58-36.9a627.28,627.28,0,0,0,56.49-51.94q28.23-29.14,51.94-58.31a664.92,664.92,0,0,0,41.46-56.5q17.76-27.33,26.88-47.38c3.64,0,7.58,1.68,11.84,5a61.11,61.11,0,0,1,11.39,11.85,57,57,0,0,1,7.75,14.58q2.73,7.76,1.82,13.21-9.12,22.78-28.25,54.67a731.31,731.31,0,0,1-45.1,66.06,880.35,880.35,0,0,1-57.41,67.88,581.64,581.64,0,0,1-65.6,60.6,340.81,340.81,0,0,1-70.62,43.28q-36.45,16.4-71.07,16.4-40.11,0-69.25-10.93t-48.29-29.62a125.79,125.79,0,0,1-29.16-43.73,194.35,194.35,0,0,1-12.75-54.22,209.5,209.5,0,0,1,9.56-83.37,368.55,368.55,0,0,1,34.63-76.08,451.73,451.73,0,0,1,46.92-64.7q25.5-29.14,46.47-50.11-12.77-12.75-26.88-33.26t-14.12-51.48q0-61,28.7-117.09a306.5,306.5,0,0,1,76.54-96.13q47.84-40.08,110.25-59.68t129.85-8.66q6.36.93,20.5,5.47a216.3,216.3,0,0,1,27.33,10.94q13.2,6.38,21.42,14.12t2.73,15q-23.7,34.65-39.64,59.23t-26.88,43.28A214,214,0,0,0,2345,2601a238.09,238.09,0,0,0-9.57,34.63Q2334.56,2645.65,2327.27,2643.81Z" transform="translate(-1164.81 -2333.3)"/><path class="cls-2" d="M2722.71,2843.35c3.64,0,7.43,1.53,11.39,4.56a47.89,47.89,0,0,1,10.48,11.39,78.5,78.5,0,0,1,7.74,15,41.13,41.13,0,0,1,3.19,14.58q-1.83,6.39-11.84,25.51t-25.52,43.74q-15.49,24.6-34.62,51.48t-38.27,49.21q-19.14,22.33-36.45,36.9t-29.16,14.58q-13.67,0-22.78-9.11t-15-24.15a136.13,136.13,0,0,1-8.2-33.71,319.5,319.5,0,0,1-2.28-38.73q0-3.63,1.37-16.86t3.19-30.52q1.82-17.3,3.19-36t1.82-34.63a173,173,0,0,0-.91-26.42q-1.36-10.47-5.92-10.48-9.12,0-22.78,9.11a215.63,215.63,0,0,0-27.34,21.87q-13.67,12.78-25.51,25.51t-18.23,20.05q-1.83,12.77-2.73,26.42t-.91,29.16a290,290,0,0,0,2.73,39.18,161,161,0,0,0,10,38.27,372.56,372.56,0,0,1-36,36.45q-16.86,14.57-28.7,14.58a32.51,32.51,0,0,1-23.23-9.11q-9.57-9.12-15-24.15a153.62,153.62,0,0,1-7.74-34.62,344.81,344.81,0,0,1-2.28-39.64q0-31,10-76.54t25.06-97.5q15-51.93,32.8-106.15t33.26-103q15.48-48.73,26-87.93t12.3-60.14q0-14.57-5.47-21.86t-5.46-13.67q0-1.82,2.73-5c1.82-2.13,3.33-3.19,4.56-3.19a141.26,141.26,0,0,1,40.09,5.92,128,128,0,0,1,35.53,16.4,96.07,96.07,0,0,1,25.52,25.06q10,14.58,10,31,0,13.67-8.2,38.27t-20.5,57q-12.3,32.36-28.25,69.25t-30.52,75.17q16.4-22.77,35.53-48.75t38.73-47.84q19.57-21.87,38.27-36t33.25-14.12q11.83,0,25.06,10.93a158.27,158.27,0,0,1,24.15,25.06,198.65,198.65,0,0,1,18.22,27.79q7.29,13.67,7.29,18.22t-3.64,9.57a85.21,85.21,0,0,1-8.66,10,59.55,59.55,0,0,1-10,8.2c-3.35,2.14-5.93,3.19-7.75,3.19-3.05,0-5-1.21-5.92-3.64a56.16,56.16,0,0,1-2.28-7.75,58.3,58.3,0,0,0-2.28-7.74,5,5,0,0,0-5-3.65q-24.6,1.84-50.11,15a291.42,291.42,0,0,0-49.21,32.35,434.62,434.62,0,0,0-44.19,41q-20.51,21.87-35.08,39.18,31.89-22.77,57.86-35.54t46.93-12.75q25.5,0,41.45,13.66t15.95,31a245.82,245.82,0,0,1-9.57,67.43,249.14,249.14,0,0,0-9.56,68.34c0,6.69,2.12,10,6.37,10q7.29,0,20-16.4t26-36.9q13.2-20.51,23.23-39.18T2722.71,2843.35Z" transform="translate(-1164.81 -2333.3)"/><path class="cls-3" d="M3066.22,2843.35a78.14,78.14,0,0,1,16.4,10.94A65.89,65.89,0,0,1,3094,2867a28.42,28.42,0,0,1,5,16.41v5.46q-1.83,6.39-11.84,25.51t-25.51,43.74q-15.51,24.6-34.63,51.48t-38.27,49.21q-19.14,22.33-36.45,36.9t-29.15,14.58a32.51,32.51,0,0,1-23.24-9.11q-9.57-9.12-15-24.15a152.52,152.52,0,0,1-7.75-34.62,342.57,342.57,0,0,1-2.28-39.64,338.72,338.72,0,0,1,2.74-43.74q-31.91,60.13-59.68,95.22t-56,35.08q-21.87,0-34.17-15T2709,3037a235.56,235.56,0,0,1-8.2-48.75q-1.83-26.42-1.82-49.2,0-17.31,5-50.12t14.58-72q9.57-39.16,23.69-80.64a472.88,472.88,0,0,1,32.34-74.72q18.22-33.24,41-54.67t50.11-21.41q22.77,0,39.64,7.29a97.77,97.77,0,0,1,29.16,19.13,124.53,124.53,0,0,1,20.5,25.52,192.51,192.51,0,0,1,13.67,27.33,27.51,27.51,0,0,1,4.55-7.74,9.12,9.12,0,0,1,7.29-3.19q10.93,0,23.24,7.29a105.19,105.19,0,0,1,22.32,17.77,103.41,103.41,0,0,1,16.4,22.32q6.36,11.85,6.38,22.78,0,6.39-10.94,34.62t-24.14,63.79q-13.22,35.54-24.15,70.61t-10.93,54.22q0,11.85,6.38,11.84,7.27,0,20-16.4t26-36.9q13.2-20.51,23.24-39.18T3066.22,2843.35Zm-250.57,31c0,3.05.14,8.06.45,15a203.62,203.62,0,0,0,2.28,22.32,86.23,86.23,0,0,0,5.47,20.5q3.63,8.67,10,8.66t15-8.2a128.85,128.85,0,0,0,17.76-21.87,350,350,0,0,0,18.23-31q9.09-17.3,18.22-35.54,9.11-34.61,19.14-68.33t18.22-60.14q-4.58-10-10.94-21.41a179.49,179.49,0,0,0-13.66-21,128.66,128.66,0,0,0-14.13-16c-4.55-4.24-9-6.37-13.21-6.37q-7.3,0-19.59,19.59t-24.14,51.48a525.28,525.28,0,0,0-20.51,72A378.45,378.45,0,0,0,2815.65,2874.33Z" transform="translate(-1164.81 -2333.3)"/><path class="cls-4" d="M3288.55,2814.2q4.54-8.2,21.87-14.58t41-10q23.68-3.63,50.57-5.46t50.57-1.83q29.14,0,45.1,3.19t23.24,9.57a25.37,25.37,0,0,1,8.65,16,167.68,167.68,0,0,1,1.37,23.23,29.54,29.54,0,0,1-1.82,10.94c-1.23,3-3.35,4.55-6.38,4.55A32.17,32.17,0,0,1,3510,2847q-2.73,6.39-9.56,38.27t-13.67,72q-6.84,40.11-12.3,79.73t-5.47,62.41q0,10,1.82,15c1.21,3.33,2.42,5.61,3.65,6.83a33.64,33.64,0,0,0,3.64,3.19q1.82,1.37,1.82,5,0,8.2-6.83,9.57t-23.23,1.37a236.57,236.57,0,0,1-24.15-1.37,91.34,91.34,0,0,1-24.6-5.92,54.6,54.6,0,0,1-19.59-13.21q-8.2-8.67-8.2-23.24,0-10.93,7.29-42.82-34.65,47.38-77,71.52t-86.1,24.15q-48.32,0-82-15.49t-55.58-42.37q-21.87-26.87-31.89-63.78t-10-79.73q0-55.57,15.49-117.54a740.41,740.41,0,0,1,42.83-123A756.29,756.29,0,0,1,3161.44,2591q37.8-55.58,82.46-98.41t94.76-67.88q50.1-25.05,103-25.06a156.44,156.44,0,0,1,24.15,2.28,164.92,164.92,0,0,1,27.34,6.83,100.33,100.33,0,0,1,22.78,10.94q9.56,6.38,9.56,13.66a13.94,13.94,0,0,1-1.82,5.47q-8.21,13.66-20.05,46.93t-23.23,72q-11.4,38.75-19.14,74.72t-7.74,55.12q0,9.12-7.29,9.11a207.2,207.2,0,0,1-24.15-1.82,127.31,127.31,0,0,1-29.61-7.29,66.5,66.5,0,0,1-25.06-16.4q-10.49-10.93-10.47-29.16t8.2-41.45q8.19-23.25,19.13-46.93t21.41-45.1q10.47-21.4,15-36.91-24.6,0-53.76,22.33t-59.68,59.22q-30.54,36.92-59.23,84.74a837.31,837.31,0,0,0-50.57,98.41,763.47,763.47,0,0,0-35.54,100.23q-13.66,49.68-13.66,89.75a191.29,191.29,0,0,0,5.46,46.47q5.47,21.87,16.86,37.81a83.16,83.16,0,0,0,29.61,25.52q18.23,9.57,43.74,9.56,32.8,0,64.69-20.5a279.48,279.48,0,0,0,57.86-49.66,381.73,381.73,0,0,0,44.65-61q18.66-31.87,26-53.75-17.33,4.56-34.63,9.56t-32.8,10.94a202.12,202.12,0,0,0-28.24,13.21q-12.78,7.3-19.14,15.49-1.83,1.83-5.92,6.83c-2.74,3.35-5.63,5-8.66,5s-8.06-6.52-15-19.59-10.48-32.34-10.48-57.86Q3282.17,2826,3288.55,2814.2Z" transform="translate(-1164.81 -2333.3)"/><path class="cls-5" d="M3973.74,2393.23q34.62,0,61.51,20.05a178.67,178.67,0,0,1,45.56,50.57,248.6,248.6,0,0,1,28.24,67q9.57,36.45,9.57,69.25,0,45.57-10.93,105.7a868.73,868.73,0,0,1-32.81,124.37,845.4,845.4,0,0,1-54.67,125.74q-32.79,61.51-76.54,110.26T3846.18,3145Q3792.41,3175,3727.73,3175q-50.13,0-85.65-18.68a169.09,169.09,0,0,1-58.78-50.57q-23.22-31.87-34.16-75.63t-10.94-94.76q0-62.87,15-128.47a753.44,753.44,0,0,1,41.45-127.57,716,716,0,0,1,62.88-116.63q36.42-54.67,77.9-96.13t87-65.15q45.56-23.68,91.12-23.69a135.54,135.54,0,0,1,31,3.65A101.75,101.75,0,0,1,3973.74,2393.23Zm-250.57,715.28q33.7,0,68.34-31.44t67-81.09q32.33-49.67,60.59-112.08t49.21-124.38a1147.43,1147.43,0,0,0,33.25-117.08q12.31-55.12,12.31-91.57a274.33,274.33,0,0,0-5.47-55.59q-5.48-26.42-19.14-33.71-24.6,0-51,22.32t-51,56.5a729,729,0,0,0-46.47,73.8q-21.87,39.64-38.27,74.72t-26,59.23q-9.55,24.15-9.56,26.88a4.37,4.37,0,0,0,.91,2.27,5.68,5.68,0,0,1,.91,3.19,15.4,15.4,0,0,1-1.82,7.75,5.94,5.94,0,0,1-5.47,3.19q-17.33-.9-28.25-3.65a111.45,111.45,0,0,1-22.78-8.65,48.77,48.77,0,0,1-19.13-16.86q-18.24,46.47-29.61,102T3650.28,2970a335.37,335.37,0,0,0,4.1,54.21q4.1,25.08,12.75,43.74t22.78,29.61Q3704,3108.51,3723.17,3108.51Z" transform="translate(-1164.81 -2333.3)"/><path class="cls-6" d="M3506,2724" transform="translate(-1164.81 -2333.3)"/><path class="cls-7" d="M3768.43,2773.87q1.13-4.86,9.39-25.73,9.57-24.13,26-59.23t38.27-74.72a729,729,0,0,1,46.47-73.8q24.6-34.17,51-56.5t51-22.32q13.66,7.3,19.13,33.71a273.61,273.61,0,0,1,5.47,55.59q0,36.45-12.3,91.57a1145,1145,0,0,1-33.26,117.08q-11.73,34.67-25.72,69.45a1115.16,1115.16,0,0,1,112.54,53.39q10.82-25.87,19.79-52.22a868.65,868.65,0,0,0,32.8-124.37q10.94-60.15,10.94-105.7,0-32.81-9.57-69.25a248.62,248.62,0,0,0-28.25-67,178.52,178.52,0,0,0-45.56-50.57q-26.88-20-61.5-20.05a101.81,101.81,0,0,0-29.16-11.84,135.47,135.47,0,0,0-31-3.65q-45.57,0-91.12,23.69t-87,65.15q-41.47,41.48-77.91,96.13A716,716,0,0,0,3596,2679.34q-14.45,33.87-25.47,68.81A1084.14,1084.14,0,0,1,3768.43,2773.87Z" transform="translate(-1164.81 -2333.3)"/><path class="cls-7" d="M3181.8,2778.77q7.75-21.17,17-42.48a837.31,837.31,0,0,1,50.57-98.41q28.71-47.84,59.23-84.74t59.68-59.22q29.16-22.32,53.76-22.33-4.56,15.51-15,36.91t-21.41,45.1q-10.93,23.7-19.14,46.93t-8.2,41.45q0,18.24,10.48,29.16a66.42,66.42,0,0,0,25.06,16.4,127.31,127.31,0,0,0,29.61,7.29,207.05,207.05,0,0,0,24.15,1.82c4.85,0,7.29-3,7.29-9.11q0-19.12,7.74-55.12t19.13-74.72q11.39-38.72,23.24-72t20.05-46.93a13.94,13.94,0,0,0,1.82-5.47q0-7.28-9.57-13.66a100.13,100.13,0,0,0-22.78-10.94,164.56,164.56,0,0,0-27.33-6.83,156.55,156.55,0,0,0-24.15-2.28q-52.86,0-103,25.06t-94.77,67.88q-44.65,42.84-82.46,98.41a761.29,761.29,0,0,0-96.92,200.34Z" transform="translate(-1164.81 -2333.3)"/><path class="cls-7" d="M2819.79,2828.76q2.11-17.3,5.86-34.61a526.75,526.75,0,0,1,20.5-72q11.83-31.89,24.15-51.48t19.59-19.59q6.36,0,13.21,6.37a128.65,128.65,0,0,1,14.12,16,179.53,179.53,0,0,1,13.67,21q6.36,11.4,10.93,21.41-8.19,26.43-18.22,60.14-5.42,18.21-10.56,36.7l45.08-7.8q29.21-5,58.68-8.23l8.36-.91q7.5-19.87,14.16-37.08,10.93-28.23,10.93-34.62,0-10.93-6.37-22.78a103.46,103.46,0,0,0-16.41-22.32,105.19,105.19,0,0,0-22.32-17.77q-12.3-7.29-23.23-7.29a9.12,9.12,0,0,0-7.29,3.19,27.29,27.29,0,0,0-4.56,7.74,190.41,190.41,0,0,0-13.67-27.33,124.19,124.19,0,0,0-20.5-25.52,97.64,97.64,0,0,0-29.16-19.13q-16.86-7.28-39.63-7.29-27.34,0-50.12,21.41t-41,54.67a472,472,0,0,0-32.35,74.72q-14.13,41.48-23.69,80.64-3.82,15.66-6.91,30.3Z" transform="translate(-1164.81 -2333.3)"/><g class="cls-8"><path class="cls-9" d="M2729.37,2844.4a14.89,14.89,0,0,0-5.32-1.05c-.22.56-.53,1.27-.94,2.13Z" transform="translate(-1164.81 -2333.3)"/><path class="cls-9" d="M2499.35,2868.59q6.65-5.3,13.31-9.75,13.66-9.09,22.78-9.11,4.54,0,5.92,10.48c.33,2.52.58,5.29.75,8.29a809.68,809.68,0,0,0,109.42-10.68,240.6,240.6,0,0,0,4.19-44.54q0-17.3-15.95-31t-41.46-13.66q-21,0-46.92,12.75t-57.86,35.54q14.56-17.29,35.08-39.18a433.56,433.56,0,0,1,44.19-41,291.74,291.74,0,0,1,49.2-32.35q25.5-13.2,50.12-15a5,5,0,0,1,5,3.65,59.84,59.84,0,0,1,2.28,7.74,54.8,54.8,0,0,0,2.27,7.75c.92,2.43,2.88,3.64,5.93,3.64,1.82,0,4.4-1,7.74-3.19a59.15,59.15,0,0,0,10-8.2,83.38,83.38,0,0,0,8.66-10c2.42-3.33,3.65-6.52,3.65-9.57s-2.44-9.11-7.29-18.22a198.75,198.75,0,0,0-18.23-27.79,158.22,158.22,0,0,0-24.14-25.06q-13.23-10.93-25.06-10.93-14.58,0-33.26,14.12t-38.27,36q-19.6,21.87-38.72,47.84t-35.54,48.75q14.57-38.28,30.53-75.17t28.24-69.25q12.3-32.34,20.5-57t8.2-38.27q0-16.41-10-31a95.88,95.88,0,0,0-25.51-25.06,128.08,128.08,0,0,0-35.54-16.4,141.26,141.26,0,0,0-40.09-5.92c-1.22,0-2.73,1.06-4.56,3.19s-2.73,3.8-2.73,5q0,6.38,5.47,13.67t5.47,21.86q-1.85,21-12.31,60.14t-26,87.93q-15.51,48.75-33.26,103t-32.8,106.15q-3.75,12.95-7.18,25.49A808.73,808.73,0,0,0,2499.35,2868.59Z" transform="translate(-1164.81 -2333.3)"/></g><path class="cls-7" d="M2053.44,2784.13c-2.93,2.92-5.92,6-9,9.14a230,230,0,0,1,133.71,5.2l10.53,3.6q9.3-5,18.27-8.83,23.24-10,37.82-10a121.85,121.85,0,0,1,25.51,3.18q14.57,3.21,14.58,15v3.64c0,4.87,2.42,7.29,7.29,7.29q4.54,0,10.93-10t6.38-19.13q0-18.22-8.2-31.44a60.48,60.48,0,0,0-21.87-21q-13.66-7.72-31.89-10.48a160.26,160.26,0,0,0-38.27-.91,238.25,238.25,0,0,0-48.75,8.2A219.58,219.58,0,0,0,2119,2744a120.37,120.37,0,0,1-3.64-31q0-55.57,22.78-103t56.49-81.09q33.7-33.7,72.44-49.66t69.7-8.66a343.51,343.51,0,0,0-33.25,63.33q-12.3,31.44-15,49.66a44.73,44.73,0,0,0,.91,20,55.84,55.84,0,0,0,8.66,18.23,71.37,71.37,0,0,0,14.12,14.58q8.2,6.38,16.4,7.29,7.29,1.83,8.2-8.2a238.09,238.09,0,0,1,9.57-34.63,214.9,214.9,0,0,1,16.86-35.08q10.94-18.66,26.88-43.28t39.63-59.23q5.48-7.28-2.73-15t-21.41-14.12a216.44,216.44,0,0,0-27.34-10.94q-14.13-4.55-20.5-5.47-67.44-10.93-129.84,8.66t-110.25,59.68a306.36,306.36,0,0,0-76.54,96.13q-28.71,56-28.7,117.09,0,31,14.12,51.48T2053.44,2784.13Z" transform="translate(-1164.81 -2333.3)"/><path class="cls-10" d="M1208.1,2883.17H1223a3.86,3.86,0,0,1,3.86,3.86v52.41a9.36,9.36,0,0,1-9.36,9.36h0a9.36,9.36,0,0,1-9.36-9.36v-56.27a0,0,0,0,1,0,0Z" transform="translate(2.83 -2576.85) rotate(21.76)"/><path class="cls-11" d="M1748.36,2876.73h0a9.36,9.36,0,0,1,9.36,9.36v59.06a3.86,3.86,0,0,1-3.86,3.86H1739a0,0,0,0,1,0,0v-62.92a9.36,9.36,0,0,1,9.36-9.36Z" transform="translate(3253.59 2680.17) rotate(159.17)"/><path class="cls-12" d="M1405.78,2362.45c29.31-25,102.46-33.54,147.94-11.37" transform="translate(-1164.81 -2333.3)"/><path class="cls-13" d="M1424.09,2410.79c29.32-25,72.05-33.05,117.53-10.88" transform="translate(-1164.81 -2333.3)"/><path class="cls-14" d="M1446.3,2453.36c24.19-17.41,39.73-27.3,81.28-7.6" transform="translate(-1164.81 -2333.3)"/><path class="cls-15" d="M1574.66,2525.4c.43,26.47-33.85,47.93-87.72,47.93s-93.39-21.46-93.51-47.93,39.26-48.12,93.51-46.12C1539.84,2481.23,1574.24,2499.8,1574.66,2525.4Z" transform="translate(-1164.81 -2333.3)"/><path class="cls-16" d="M1497.66,2484.91c0,3.17-6,5.75-12,5.75s-11.91-2.58-11.91-5.75,5.94-5.75,11.91-5.75S1497.66,2481.73,1497.66,2484.91Z" transform="translate(-1164.81 -2333.3)"/><path class="cls-17" d="M1497.66,2525.44c0,3.18-6,5.75-12,5.75s-11.91-2.57-11.91-5.75,5.94-5.75,11.91-5.75S1497.66,2522.26,1497.66,2525.44Z" transform="translate(-1164.81 -2333.3)"/><path class="cls-18" d="M1497.13,2493.21c-1.2,2.52-5.5,3.39-11.6,3.28-6.81-.13-11.35-1.35-11.79-3.28-.65-2.83,3.86-3.11,11.69-2.55C1493.46,2491.23,1498.62,2490.08,1497.13,2493.21Z" transform="translate(-1164.81 -2333.3)"/><line class="cls-19" x1="312.2" y1="163.2" x2="281.5" y2="189.65"/><line class="cls-20" x1="321.8" y1="176.15" x2="321.8" y2="163.92"/><line class="cls-21" x1="370.48" y1="201.54" x2="329.93" y2="163.2"/><path class="cls-22" d="M1412.85,2555.07c16.74,34,104.27,62.29,146.79-1.48" transform="translate(-1164.81 -2333.3)"/><line class="cls-23" x1="291.37" y1="253.29" x2="291.37" y2="281.01"/><line class="cls-24" x1="320.09" y1="258.3" x2="320.09" y2="283.64"/><line class="cls-25" x1="352.61" y1="253.58" x2="352.61" y2="282.47"/><circle class="cls-26" cx="182.51" cy="302.46" r="8.95"/><circle class="cls-27" cx="248.05" cy="314.07" r="8.95"/><circle class="cls-28" cx="321.8" cy="314.07" r="8.95"/><circle class="cls-29" cx="401.82" cy="311.41" r="8.95"/><circle class="cls-30" cx="458.09" cy="301.87" r="8.95"/><path class="cls-31" d="M1312.08,2657.38l54.89,9.22h222.6l65.2-11.5.73,3.6c-.69-33.75-27.86-55-62-42.93H1367c-37.35-5.58-52.3,18.9-51.65,42.15Z" transform="translate(-1164.81 -2333.3)"/><polygon class="cls-32" points="190.47 448.25 154.12 450.64 153.44 340.76 191.45 348.7 190.47 448.25"/><line class="cls-33" x1="205.68" y1="345.54" x2="205.68" y2="451.76"/><line class="cls-34" x1="418.31" y1="451.76" x2="418.55" y2="345.55"/><path class="cls-35" d="M276.6,360.08h73.71a34.27,34.27,0,0,1,34.27,34.27v51.8a0,0,0,0,1,0,0H242.33a0,0,0,0,1,0,0v-51.8A34.27,34.27,0,0,1,276.6,360.08Z"/><polygon class="cls-36" points="487.16 451.76 433.38 448.25 433.38 350.55 487.16 340.8 487.16 451.76"/><path class="cls-37" d="M1332.28,2941.62c6.16,4.41,31.47,11.58,56.13,16.37" transform="translate(-1164.81 -2333.3)"/><path class="cls-38" d="M1407.13,2961.5c0-1.94,77.48,15.79,154.95-3.51" transform="translate(-1164.81 -2333.3)"/><path class="cls-39" d="M1580.29,2955.92c9-1.48,38-8.56,56.06-16.05" transform="translate(-1164.81 -2333.3)"/><path class="cls-40" d="M1685.1,2918c32.07-15.06,69.1-43.43,83.5-77.3a20.69,20.69,0,0,0-12.65-27.77c-173-56.1-482.62-34-566,4a8.17,8.17,0,0,0-4.75,8.32c4.16,38,51.44,77.4,90.92,93" transform="translate(-1164.81 -2333.3)"/><circle class="cls-41" cx="146.09" cy="534.94" r="20.47"/><circle class="cls-42" cx="281.05" cy="516.51" r="20.47"/><circle class="cls-43" cx="489.96" cy="538.1" r="20.47"/><circle class="cls-44" cx="356.79" cy="517.63" r="20.47"/><path class="cls-45" d="M1183.75,2995.71" transform="translate(-1164.81 -2333.3)"/><rect class="cls-46" x="1207.79" y="2996.93" width="2.4" height="1.87" transform="translate(-2394.66 -1456.96) rotate(-27.02)"/><polygon class="cls-47" points="21.27 661.19 18.34 659.95 38.84 611.92 41.81 613.13 21.27 661.19"/><polygon class="cls-48" points="47.02 665.55 44.96 663.13 97.17 618.91 99.23 621.38 47.02 665.55"/><path class="cls-49" d="M1277.19,2901.44H1292a3.86,3.86,0,0,1,3.86,3.86v49.62a9.36,9.36,0,0,1-9.36,9.36h0a9.36,9.36,0,0,1-9.36-9.36v-53.48a0,0,0,0,1,0,0Z" transform="translate(1456.13 -2311.85) rotate(48.31)"/><path class="cls-50" d="M1166.19,2990.43c-5.78,1,18.27,21.59,28.87,21.93,10,1.82,39.54-12.48,34-13.87C1207,2996,1171.18,2991,1166.19,2990.43Z" transform="translate(-1164.81 -2333.3)"/><polygon class="cls-51" points="614.11 659.72 617.06 658.52 598.26 612.23 595.31 613.48 614.11 659.72"/><polygon class="cls-52" points="587.85 663.7 589.95 661.31 540.02 617.38 537.95 619.83 587.85 663.7"/><path class="cls-53" d="M1680.19,2900.32h0a9.36,9.36,0,0,1,9.36,9.36v49.62a3.86,3.86,0,0,1-3.86,3.86h-14.85a0,0,0,0,1,0,0v-53.48A9.36,9.36,0,0,1,1680.19,2900.32Z" transform="translate(3810.51 1346.95) rotate(132.62)"/><path class="cls-54" d="M1789.45,3002.92c.12-.12.74-.62.87-.74s.22-.23.35-.33a3.85,3.85,0,0,0,.3-.27c.2-.22.36-.35.58-.56l.29-.28c.34-.35.7-.65,1-1s.41-.44.64-.67.65-.7.94-1l.25-.26c.11-.14.25-.27.36-.41.37-.46.68-.8,1-1.2a2.9,2.9,0,0,1,.33-.38c.1-.1.23-.25.31-.35a4,4,0,0,0,.3-.42,2.21,2.21,0,0,0,.12-.27.88.88,0,0,0,.06-.36.66.66,0,0,0,0-.28,1.36,1.36,0,0,0-.85-.94c.17,0,.33-.14.51-.15l.68-.05.28,0c.51-.06,1-.08,1.54-.12a4,4,0,0,1,.6-.05.17.17,0,0,1,0,.13l-.42.67a3.74,3.74,0,0,1-.41.55.58.58,0,0,0-.1.12,7.76,7.76,0,0,1-.65.86,2.2,2.2,0,0,1-.2.23l-.16.13a2.62,2.62,0,0,1-.34.24c-.21.11-.29.39-.45.57a1.07,1.07,0,0,1-.18.19c-.09.09-.19.16-.27.24a.86.86,0,0,0-.13.14l-.49.56a4.78,4.78,0,0,1-.48.43l-.22.21-.19.23a2.71,2.71,0,0,1-.74.61,1.94,1.94,0,0,0-.24.15l-.4.28c-.4.27-.6.77-1,1.05-.09.07-.19.13-.27.2a1.86,1.86,0,0,1-.28.21c-.08.05-.16.08-.24.12a1.28,1.28,0,0,0-.25.15l-.26.2c-.13.11-.23.28-.37.38s-.16.11-.24.18l-.14.13C1790.52,3002.19,1789.72,3002.7,1789.45,3002.92Z" transform="translate(-1164.81 -2333.3)"/><path class="cls-55" d="M1800.34,2989.93c5.49.25-17.67,21.14-28.28,21.77s-38-13.84-32-15.35Z" transform="translate(-1164.81 -2333.3)"/><rect class="cls-56" x="24.79" y="776.73" width="5.37" height="18.71" rx="2.69"/><rect class="cls-57" x="71.29" y="705.39" width="2.63" height="43.86" rx="1.31"/><rect class="cls-58" x="97.01" y="806.55" width="2.34" height="48.53" rx="1.17"/><rect class="cls-59" x="126.52" y="758.75" width="5.85" height="35.96" rx="2.92"/><rect class="cls-60" x="1287.65" y="3147.67" width="6.6" height="24.85" rx="2.69" transform="translate(-895.56 -2430.33) rotate(4.81)"/><rect class="cls-61" x="165.43" y="765.33" width="2.92" height="15.2" rx="1.46"/><rect class="cls-62" x="204.6" y="757.43" width="5.85" height="46.19" rx="2.92"/><rect class="cls-63" x="175.37" y="828.19" width="5.85" height="46.19" rx="2.92"/><rect class="cls-64" x="260.74" y="786.08" width="4.97" height="116.95" rx="2.49"/><rect class="cls-65" x="283.84" y="820.88" width="3.51" height="12.28" rx="1.75"/><rect class="cls-66" x="316.87" y="748.08" width="3.22" height="42.69" rx="1.61"/><rect class="cls-67" x="314.94" y="840.76" width="3.54" height="16.67" rx="1.77"/><rect class="cls-68" x="363.36" y="807.72" width="3.8" height="15.5" rx="1.9"/><rect class="cls-69" x="401.95" y="736.38" width="6.72" height="25.73" rx="3.36"/><rect class="cls-70" x="387.04" y="788.42" width="2.05" height="112.56" rx="1.02"/><rect class="cls-71" x="444.35" y="769.42" width="2.63" height="21.34" rx="1.32"/><rect class="cls-72" x="449.03" y="815.47" width="2.34" height="29.09" rx="1.17"/><rect class="cls-73" x="470.37" y="830.01" width="4.09" height="42.32" rx="2.05"/><rect class="cls-74" x="519.49" y="762.11" width="3.51" height="28.65" rx="1.75"/><rect class="cls-75" x="523" y="816.78" width="3.22" height="21.05" rx="1.61"/><rect class="cls-76" x="557.2" y="729.66" width="3.22" height="43.86" rx="1.61"/><rect class="cls-77" x="580.87" y="704.8" width="3.81" height="111.98" rx="1.91"/><rect class="cls-78" x="621.82" y="777.61" width="4.45" height="16.37" rx="2.23"/><path class="cls-79" d="M1341.61,3055.86c-7.55.33-15.1.23-22.57.39a7.38,7.38,0,0,1-3-.26,2.14,2.14,0,0,1-1-2.57c-.37-.1-.67.17-.91.47a2.81,2.81,0,0,0-.45,1.05,3.23,3.23,0,0,0-.13,1.84,2.34,2.34,0,0,0,1.59,1.42,7.07,7.07,0,0,0,2.2.17l3.46-.09c.93,0,1.87-.05,2.8-.12,3.39-.25,6.79-1.09,10.14-.52,2.22.39,4.46-.35,6.7-.62l1.16-.14,1.4-.17a3.06,3.06,0,0,0,1.36-.43,2.09,2.09,0,0,0,.77-1.3,5.74,5.74,0,0,0,.06-1.55l-1,1.1a3.9,3.9,0,0,1-1.26,1.11A3.2,3.2,0,0,1,1341.61,3055.86Z" transform="translate(-1164.81 -2333.3)"/><rect class="cls-80" x="1408.78" y="2869.25" width="26.17" height="75.87" rx="12" transform="translate(218.44 -2662.15) rotate(25.38)"/><rect class="cls-81" x="134.74" y="552.24" width="24.38" height="87.8" rx="12"/><path class="cls-82" d="M1405.1,2947.22a4.36,4.36,0,0,0-2.57-5,4.49,4.49,0,0,0-5.61,2.16l-56.87,108.21a4.49,4.49,0,0,0,1.34,5.83,4.37,4.37,0,0,0,6.26-1.6l57.06-108.56c.26-.49.35-1,.58-1.54a17.14,17.14,0,0,1,.87-1.64,4.74,4.74,0,0,1,1-1.35,4.59,4.59,0,0,1,2.63-.8c-.39.09-.78-.22-1.14-.39-1.18-.55-2.1-1-3.28-1.4a3.71,3.71,0,0,1-.53-.26l-.68-.45c-.19-.13-.64.16-.81,0a12.92,12.92,0,0,1-2.42-2.75,3.08,3.08,0,0,0-.32-.48,2.18,2.18,0,0,0-.65-.46,6.54,6.54,0,0,1-1.24-.76,6.43,6.43,0,0,1,.21,4.39,15.23,15.23,0,0,1-2,4,9.87,9.87,0,0,1,3.08-.66,3.79,3.79,0,0,1,1.61.21,6.61,6.61,0,0,1,1,.62,12.69,12.69,0,0,0,1.62.88l.77,1.79a1.53,1.53,0,0,1,.14-.46" transform="translate(-1164.81 -2333.3)"/><path class="cls-83" d="M1351.78,3056.7a3.84,3.84,0,0,1-1.56-.37.84.84,0,0,1-.28-.18.82.82,0,0,1-.16-.34,2.15,2.15,0,0,1,.19-1.19c.14-.35.31-.69.48-1l1.75-3.53c2.54-5.13,5.28-10,7.72-15.21,2.94-6.22,6.28-12,9.34-18.13,2.64-5.29,5.32-10.32,8-15.62a38.39,38.39,0,0,0,1.67-3.7c.93-2.55,1.33-5.33,2.83-7.59-3,2.51-3.52,6.92-5.38,10.4-.69,1.28-1.58,2.45-2.26,3.74s-1.13,2.61-1.77,3.88a58.41,58.41,0,0,1-4.21,6.29c-1.14,1.68-2.12,3.45-3.11,5.22l-6.93,12.45a10.86,10.86,0,0,0-1.6,4.12c-.15,1.63-1.41,3.26-2,4.79a56.4,56.4,0,0,1-3.6,8.6,74.21,74.21,0,0,0-3.7,6.55,2.4,2.4,0,0,0-.23.9,1.64,1.64,0,0,0,.56,1.11,2.66,2.66,0,0,0,2.45.64A2.7,2.7,0,0,0,1351.78,3056.7Z" transform="translate(-1164.81 -2333.3)"/><path class="cls-84" d="M1338.53,3055.24a2.84,2.84,0,0,1-1.87,1.19c-.61.06-6.25.23-6.76.39.53.13,6.33.23,6.88.25l3.37.09c.25,0,.57,0,.66-.27a.65.65,0,0,0-.07-.45,6.71,6.71,0,0,1-.74-2.35c0-.3,1.29-3.21,1-3.41A32.73,32.73,0,0,1,1338.53,3055.24Z" transform="translate(-1164.81 -2333.3)"/><path class="cls-85" d="M1313.33,3057.16h-.76a3.85,3.85,0,0,1-3.84-3.84v-70c0-2.86.58-7-.79-9.56a6.76,6.76,0,0,0-.85-1.21,2.87,2.87,0,0,0,1.14.39c3.58.6,8.45-.71,11.77-2.19-.19.17-1.66,1.62-2.06,2.06a2.49,2.49,0,0,0-.51,1.58c0,1.24-.19,2.46-.24,3.71a5.1,5.1,0,0,0-5.64-1.77c-.61.21-1.71,1-2.37.84s-.34-1.07-.06-1.64a3.86,3.86,0,0,1,3.45-2.17h.76a3.85,3.85,0,0,1,3.84,3.83v76.14A3.85,3.85,0,0,1,1313.33,3057.16Z" transform="translate(-1164.81 -2333.3)"/><path class="cls-86" d="M1308.8,3054a7,7,0,0,1-.25,1.44,1.3,1.3,0,0,1-.2.43,1.28,1.28,0,0,1-.36.29,6.33,6.33,0,0,1-1.47.61,31.35,31.35,0,0,0,4.22.17c.55,0,1.11-.09,1.66-.13s1.26-.05,1.89-.06c1.8,0,3.59,0,5.39,0a2.17,2.17,0,0,1-2.44-1.56c-.14-.43,0-2.23-.07-2.67-.41.21-1,1.89-1.41,2.15a6.3,6.3,0,0,1-3.5,1,1.87,1.87,0,0,1-.71-.08,3,3,0,0,1-.54-.32,8.31,8.31,0,0,0-1.19-.5A2,2,0,0,1,1308.8,3054Z" transform="translate(-1164.81 -2333.3)"/><path class="cls-87" d="M1300.11,3072.39c-.2-.14-1.14-.73-1.34-.86s-.34-.29-.53-.4a5.4,5.4,0,0,1-.46-.33c-.32-.27-.56-.42-.9-.67l-.46-.35c-.52-.42-1.07-.78-1.59-1.2s-.64-.53-1-.81-1-.86-1.47-1.27c-.15-.13-.24-.19-.38-.32s-.4-.33-.58-.5c-.57-.58-1.06-1-1.6-1.5-.2-.18-.29-.29-.52-.47a4,4,0,0,1-.49-.43c-.15-.16-.36-.35-.49-.52s-.15-.26-.21-.36-.31-.13-.46-.5c-.22-.54-.44-.58,0-.91s23.09-.76,23.68-1.06c-.25,0-22-.45-22.26-.44s-.5.44-.81.46c-.13,0-.87-.17-.9-.29-.09-.37-1.33,0-2,0-.28,0-1.1,0-1.37,0a2.32,2.32,0,0,0,.07.65l.7.85a3.93,3.93,0,0,0,.66.69,1.21,1.21,0,0,1,.16.16,13.06,13.06,0,0,0,1,1.08,2.79,2.79,0,0,0,.32.28l.24.15a3.67,3.67,0,0,0,.52.27c.31.12.46.5.71.72a2.09,2.09,0,0,0,.28.24c.14.1.29.18.42.28l.2.17.77.7a6.59,6.59,0,0,0,.75.51,2.69,2.69,0,0,1,.33.26l.31.28a3.9,3.9,0,0,0,1.12.72l.36.16.6.32c.59.31,1,1,1.54,1.29l.41.23a2.58,2.58,0,0,0,.42.25c.11.05.24.07.35.12a1.76,1.76,0,0,1,.37.17l.39.23c.21.13.36.34.58.46s.25.13.36.21l.22.16C1298.5,3071.57,1299.69,3072.13,1300.11,3072.39Z" transform="translate(-1164.81 -2333.3)"/><path class="cls-88" d="M1360,3068.43c.39-.31-.23.17.14-.1s1-.85,1.48-1.27c.15-.13.24-.19.38-.32s.4-.32.58-.49c.58-.58,1.07-1,1.61-1.49a3.93,3.93,0,0,0,.5-.5c.21-.26.23-.3.36-.45a2.85,2.85,0,0,0,.32-.46c.07-.1.19-.26.25-.36s.21-.39.32-.55,1.11-1.31,1-1.4c-.59-.54-16.78-.87-17.45-1.09.25,0,16.24-.17,16.5-.15s1-.34,1.29-.32h1c.72,0,1.51-.2,2.24-.17.27,0,.94.66,1.21.71a13.56,13.56,0,0,1-.93,1.13c-.24.29-.78.76-1,1s-.59.36-.84.55c-.07.06,0,.47-.07.53-.31.39-.93.27-1.29.62-.1.1-.36,0-.48.09s0,.31,0,.36-.26.24-.44.31-.52.49-.77.71a3.4,3.4,0,0,1-.3.23c-.13.1-.32.18-.46.29s-.18.11-.25.17c-.26.23-.62.21-.88.44a6.59,6.59,0,0,1-.75.51l-.34.25-.3.28c-.33.3-.44.85-.85,1-.12,0-.24.2-.36.26s-.6.18-.8.28c-.6.31-.6,1.34-1.19,1.66-.14.07-.36-.17-.5-.09s-.38.06-.53.12-.36.24-.47.28-.08.23-.2.3-.41,0-.54,0-.22.49-.43.61a2,2,0,0,1-.56.33c-.08,0-.19.49-.27.54-.4.29-1.48.05-1.91.31l1.68-1.17c.23-.16,1-.76,1.2-.9l1-.81c.32-.27.81-.68,1-.88S1359.88,3068.5,1360,3068.43Z" transform="translate(-1164.81 -2333.3)"/><path class="cls-89" d="M1280.24,3056.75c-8.24,2.77,32.57,30.79,48.24,29.14,15.1.88,54.76-28.06,46.19-29.14C1341.72,3057.23,1287.72,3056.64,1280.24,3056.75Z" transform="translate(-1164.81 -2333.3)"/><rect class="cls-90" x="1531.22" y="2869.88" width="26.17" height="75.87" rx="12" transform="translate(3021.06 2539.82) rotate(154.62)"/><rect class="cls-91" x="1642.24" y="2891.86" width="24.38" height="82.12" rx="12" transform="translate(2144.06 3532.54) rotate(-180)"/><path class="cls-92" d="M1614.39,3057.33a3.83,3.83,0,0,0,1.56-.36,1.07,1.07,0,0,0,.28-.19.82.82,0,0,0,.16-.34,2.15,2.15,0,0,0-.19-1.19c-.14-.35-.31-.69-.48-1l-1.75-3.53c-2.54-5.13-5.28-10-7.73-15.21-2.93-6.21-6.27-12-9.33-18.12-2.64-5.3-5.32-10.33-8-15.63a38.39,38.39,0,0,1-1.67-3.7c-.93-2.54-1.33-5.33-2.83-7.59,3,2.51,3.52,6.93,5.38,10.4.69,1.28,1.57,2.45,2.26,3.74s1.13,2.61,1.77,3.88a58.41,58.41,0,0,0,4.21,6.29c1.14,1.68,2.12,3.45,3.11,5.22l6.93,12.46a10.82,10.82,0,0,1,1.6,4.11c.15,1.63,1.41,3.26,2,4.8a56.71,56.71,0,0,0,3.6,8.59,73,73,0,0,1,3.7,6.56,2.3,2.3,0,0,1,.23.89,1.64,1.64,0,0,1-.56,1.11,2.55,2.55,0,0,1-4.25-1.16Z" transform="translate(-1164.81 -2333.3)"/><path class="cls-93" d="M1627.64,3055.88a2.86,2.86,0,0,0,1.87,1.18c.61.06,6.25.23,6.76.39-.54.14-6.33.23-6.88.25l-3.37.09c-.25,0-.57,0-.66-.27a.6.6,0,0,1,.07-.45,6.64,6.64,0,0,0,.74-2.35c0-.3-1.29-3.21-1.05-3.41A33.42,33.42,0,0,0,1627.64,3055.88Z" transform="translate(-1164.81 -2333.3)"/><path class="cls-94" d="M1652.84,3057.79h.76a3.85,3.85,0,0,0,3.84-3.84v-70c0-2.86-.58-7,.79-9.55a6.06,6.06,0,0,1,.85-1.22,2.92,2.92,0,0,1-1.14.39c-3.58.6-8.46-.71-11.77-2.18.19.16,1.66,1.61,2.06,2.06a2.45,2.45,0,0,1,.51,1.57c0,1.24.19,2.46.24,3.71a5.11,5.11,0,0,1,5.64-1.77c.61.21,1.71,1,2.37.84s.34-1.07.06-1.64a3.86,3.86,0,0,0-3.45-2.17h-.76a3.84,3.84,0,0,0-3.84,3.83V3054A3.85,3.85,0,0,0,1652.84,3057.79Z" transform="translate(-1164.81 -2333.3)"/><path class="cls-95" d="M1657.37,3054.63a7,7,0,0,0,.25,1.43,1.3,1.3,0,0,0,.2.43,1.28,1.28,0,0,0,.36.29,6.44,6.44,0,0,0,1.46.61,31.14,31.14,0,0,1-4.21.17c-.55,0-1.11-.09-1.66-.13s-1.26,0-1.89-.06c-1.8,0-3.59,0-5.39,0a2.17,2.17,0,0,0,2.44-1.56c.14-.43,0-2.23.07-2.67.4.21,1,1.89,1.41,2.15a6.3,6.3,0,0,0,3.5,1,1.9,1.9,0,0,0,.71-.08,3.6,3.6,0,0,0,.54-.31,7.35,7.35,0,0,1,1.19-.51A2.06,2.06,0,0,0,1657.37,3054.63Z" transform="translate(-1164.81 -2333.3)"/><path class="cls-96" d="M1561.07,2947.85a4.36,4.36,0,0,1,2.57-5,4.49,4.49,0,0,1,5.61,2.16l56.87,108.21a4.49,4.49,0,0,1-1.34,5.83,4.37,4.37,0,0,1-6.26-1.6l-57.06-108.56c-.26-.49-.35-1-.58-1.54s-.55-1.11-.87-1.64a5.08,5.08,0,0,0-1-1.35,4.59,4.59,0,0,0-2.63-.8c.39.09.78-.22,1.14-.39,1.17-.54,2.1-1,3.28-1.4a3.71,3.71,0,0,0,.53-.26l.68-.45c.19-.13.64.16.81,0a13.2,13.2,0,0,0,2.42-2.75,3.56,3.56,0,0,1,.31-.48,2.37,2.37,0,0,1,.66-.46,6.07,6.07,0,0,0,1.24-.76,6.43,6.43,0,0,0-.21,4.39,15.29,15.29,0,0,0,2,4,9.59,9.59,0,0,0-3.08-.66,3.5,3.5,0,0,0-1.61.21,6.55,6.55,0,0,0-1,.61,14.14,14.14,0,0,1-1.62.89c-.26.59-.51,1.19-.77,1.78a1.88,1.88,0,0,0-.14-.46" transform="translate(-1164.81 -2333.3)"/><path class="cls-97" d="M1624.56,3059.48c7.55.33,15.09.23,22.56.39a7.42,7.42,0,0,0,3-.26,2.14,2.14,0,0,0,1-2.57c.37-.1.67.17.91.47a2.81,2.81,0,0,1,.45,1,3.23,3.23,0,0,1,.13,1.84,2.35,2.35,0,0,1-1.6,1.42,7,7,0,0,1-2.19.18l-3.46-.1c-.93,0-1.87-.05-2.8-.12-3.39-.25-6.79-1.09-10.14-.52-2.22.39-4.46-.35-6.7-.62l-1.16-.14-1.4-.17a3.06,3.06,0,0,1-1.36-.43,2.09,2.09,0,0,1-.77-1.3,5.74,5.74,0,0,1-.06-1.55l1,1.1a3.8,3.8,0,0,0,1.26,1.11A3.2,3.2,0,0,0,1624.56,3059.48Z" transform="translate(-1164.81 -2333.3)"/><path class="cls-98" d="M1664.25,3072.39c.2-.14,1.14-.73,1.34-.86s.34-.29.53-.4a5.4,5.4,0,0,0,.46-.33c.32-.27.56-.42.9-.67l.46-.35c.52-.42,1.07-.78,1.59-1.2s.64-.53,1-.81,1-.86,1.47-1.27c.15-.13.24-.19.38-.32s.4-.33.58-.5c.57-.58,1.06-1,1.6-1.5.2-.18.29-.29.52-.47a4,4,0,0,0,.49-.43c.15-.16.36-.35.49-.52l.21-.36c.1-.16.31-.13.46-.5.22-.54.44-.58,0-.91s-23.09-.76-23.68-1.06c.25,0,22-.45,22.25-.44s.51.44.82.46c.13,0,.87-.17.9-.29.09-.37,1.33,0,2,0,.27,0,1.1,0,1.37,0a2.32,2.32,0,0,1-.07.65l-.7.85a3.93,3.93,0,0,1-.66.69,1.21,1.21,0,0,0-.16.16c-.32.38-.67.73-1,1.08a4,4,0,0,1-.32.28l-.24.15a3.67,3.67,0,0,1-.52.27c-.31.12-.46.5-.71.72a2.09,2.09,0,0,1-.28.24c-.14.1-.29.18-.42.28l-.2.17-.77.7a6.59,6.59,0,0,1-.75.51,2.69,2.69,0,0,0-.33.26l-.31.28a3.9,3.9,0,0,1-1.12.72l-.36.16-.6.32c-.59.31-1,1-1.54,1.29l-.41.23a2.58,2.58,0,0,1-.42.25c-.11.05-.24.07-.35.12a1.76,1.76,0,0,0-.37.17l-.39.23c-.21.13-.36.34-.58.46s-.25.13-.36.21l-.22.16C1665.86,3071.57,1664.67,3072.13,1664.25,3072.39Z" transform="translate(-1164.81 -2333.3)"/><path class="cls-99" d="M1604.39,3068.43c-.39-.31.23.17-.14-.1s-1-.85-1.48-1.27c-.15-.13-.24-.19-.38-.32s-.4-.32-.58-.49c-.58-.58-1.07-1-1.61-1.49a3.93,3.93,0,0,1-.5-.5c-.21-.26-.23-.3-.36-.45a2.85,2.85,0,0,1-.32-.46c-.07-.1-.19-.26-.25-.36s-.21-.39-.32-.55-1.12-1.31-1-1.4c.59-.54,16.78-.87,17.45-1.09-.25,0-16.24-.17-16.5-.15s-1-.34-1.29-.32h-1c-.72,0-1.52-.2-2.24-.17-.27,0-.94.66-1.22.71,0,.06.9,1.08.94,1.13.24.29.78.76,1,1s.59.36.84.55c.07.06,0,.47.07.53.31.39.93.27,1.29.62.1.1.36,0,.48.09s0,.31,0,.36.26.24.44.31.52.49.77.71a3.4,3.4,0,0,0,.3.23c.13.1.32.18.46.29s.18.11.25.17c.25.23.62.21.88.44a6.59,6.59,0,0,0,.75.51l.34.25.3.28c.33.3.44.85.85,1,.12,0,.24.2.36.26s.6.18.8.28c.6.31.6,1.34,1.19,1.66.14.07.36-.17.5-.09s.38.06.53.12.36.24.47.28.08.23.2.3.41,0,.54,0,.22.49.43.61a1.87,1.87,0,0,0,.56.33c.08,0,.19.49.27.54.4.29,1.48.05,1.91.31l-1.68-1.17c-.24-.16-1-.76-1.2-.9l-1-.81c-.32-.27-.81-.68-1-.88S1604.48,3068.5,1604.39,3068.43Z" transform="translate(-1164.81 -2333.3)"/><path class="cls-100" d="M1684.12,3056.75c8.24,2.77-32.57,30.79-48.24,29.14-15.1.88-54.76-28.06-46.19-29.14C1622.64,3057.23,1676.64,3056.64,1684.12,3056.75Z" transform="translate(-1164.81 -2333.3)"/><line class="cls-101" x1="418.55" y1="350.55" x2="202.46" y2="350.55"/><g class="cls-102"><path class="cls-103" d="M1295.79,2848.18c-1.82,5.44-3.74,10.86-5.65,16.28l2.89,3.8,0,0,.12.24c2.46,3.26,4.92,6.52,7.34,9.8Q1298.09,2863.24,1295.79,2848.18Z" transform="translate(-1164.81 -2333.3)"/><path class="cls-104" d="M1293,2868.26l0,0,.12.24c2.46,3.26,4.92,6.52,7.34,9.8q-2.44-15-4.74-30.09c-1.82,5.44-3.74,10.86-5.65,16.28Z" transform="translate(-1164.81 -2333.3)"/><path class="cls-104" d="M1208.1,2883.17H1223a3.86,3.86,0,0,1,3.86,3.86v52.41a9.36,9.36,0,0,1-9.36,9.36h0a9.36,9.36,0,0,1-9.36-9.36v-56.27A0,0,0,0,1,1208.1,2883.17Z" transform="translate(2.83 -2576.85) rotate(21.76)"/><path class="cls-105" d="M1405.78,2362.45c15.53-13.23,37.11-19.09,56.87-22.06a189.88,189.88,0,0,1,20.34-1.93" transform="translate(-1164.81 -2333.3)"/><path class="cls-105" d="M1424.09,2410.79a99.74,99.74,0,0,1,38.18-20.31" transform="translate(-1164.81 -2333.3)"/><path class="cls-105" d="M1446.3,2453.36a169.27,169.27,0,0,1,17.9-11.76" transform="translate(-1164.81 -2333.3)"/><path class="cls-104" d="M1479.46,2569.61a150.58,150.58,0,0,1,2.88-41.17c-8.58-14.45-11.07-32.63-11.69-49-45.66,2.41-77.32,22.28-77.22,46,.11,25.29,36.18,46,86.37,47.8C1479.67,2572,1479.56,2570.81,1479.46,2569.61Z" transform="translate(-1164.81 -2333.3)"/><path class="cls-104" d="M1479.46,2569.61a128.35,128.35,0,0,1-.28-15.21l-66.33.67c9,18.31,38.57,35,70.56,36.47A99.36,99.36,0,0,1,1479.46,2569.61Z" transform="translate(-1164.81 -2333.3)"/><line class="cls-104" x1="291.37" y1="253.29" x2="291.37" y2="281.01"/><path class="cls-104" d="M1442.11,2666.6h.23c.19-.23.38-.45.52-.64,5.71-7.8,11.15-15.83,16.24-24,5.36-8.65,10.57-17.56,16.21-26.15H1367c-37.35-5.58-52.3,18.9-51.65,42.15l-3.24-.54,54.89,9.22h74.94C1442.25,2666,1442.29,2666.13,1442.11,2666.6Z" transform="translate(-1164.81 -2333.3)"/><polygon class="cls-104" points="190.47 448.25 154.12 450.64 153.44 340.76 191.45 348.7 190.47 448.25"/><line class="cls-106" x1="205.68" y1="345.54" x2="205.68" y2="451.76"/><path class="cls-107" d="M1332.28,2941.62c6.16,4.41,31.47,11.58,56.13,16.37" transform="translate(-1164.81 -2333.3)"/><path class="cls-107" d="M1452.84,2960.47l-43.49,1c5.45.53,20.65,3,41.56,4.5C1451.48,2964.1,1452.13,2962.27,1452.84,2960.47Z" transform="translate(-1164.81 -2333.3)"/><path class="cls-104" d="M1453.8,2917l-.16-.13-2-1.53c-4.59-3.5-9.25-7-13.59-10.76-13.84-12.16-24.16-29.6-32.71-45.76-9.56-18.06-17.78-37.51-22.12-57.54a153.26,153.26,0,0,1-3-18.7c-84.65,6-156.29,18.84-190.29,34.34a8.17,8.17,0,0,0-4.75,8.32c4.16,38,51.44,77.4,90.92,93l179-.09Z" transform="translate(-1164.81 -2333.3)"/><circle class="cls-104" cx="146.09" cy="534.94" r="20.47"/><polygon class="cls-104" points="21.27 661.19 18.34 659.95 38.84 611.92 41.81 613.13 21.27 661.19"/><polygon class="cls-104" points="47.02 665.55 44.96 663.13 97.17 618.91 99.23 621.38 47.02 665.55"/><path class="cls-104" d="M1277.19,2901.44H1292a3.86,3.86,0,0,1,3.86,3.86v49.62a9.36,9.36,0,0,1-9.36,9.36h0a9.36,9.36,0,0,1-9.36-9.36v-53.48a0,0,0,0,1,0,0Z" transform="translate(1456.13 -2311.85) rotate(48.31)"/><path class="cls-104" d="M1166.19,2990.43c-5.78,1,18.27,21.59,28.87,21.93,10,1.82,39.54-12.48,34-13.87C1207,2996,1171.18,2991,1166.19,2990.43Z" transform="translate(-1164.81 -2333.3)"/><rect class="cls-104" x="24.79" y="776.73" width="5.37" height="18.71" rx="2.69"/><rect class="cls-104" x="71.29" y="705.39" width="2.63" height="43.86" rx="1.31"/><rect class="cls-104" x="97.01" y="806.55" width="2.34" height="48.53" rx="1.17"/><rect class="cls-104" x="126.52" y="758.75" width="5.85" height="35.96" rx="2.92"/><rect class="cls-104" x="1287.65" y="3147.67" width="6.6" height="24.85" rx="2.69" transform="translate(-895.56 -2430.33) rotate(4.81)"/><rect class="cls-104" x="165.43" y="765.33" width="2.92" height="15.2" rx="1.46"/><rect class="cls-104" x="204.6" y="757.43" width="5.85" height="46.19" rx="2.92"/><rect class="cls-104" x="175.37" y="828.19" width="5.85" height="46.19" rx="2.92"/><rect class="cls-104" x="260.74" y="786.08" width="4.97" height="116.95" rx="2.49"/><rect class="cls-104" x="283.84" y="820.88" width="3.51" height="12.28" rx="1.75"/><rect class="cls-104" x="316.87" y="748.08" width="3.22" height="42.69" rx="1.61"/><rect class="cls-104" x="314.94" y="840.76" width="3.54" height="16.67" rx="1.77"/><rect class="cls-104" x="363.36" y="807.72" width="3.8" height="15.5" rx="1.9"/><path class="cls-104" d="M1341.61,3055.86c-7.55.33-15.1.23-22.57.39a7.38,7.38,0,0,1-3-.26,2.14,2.14,0,0,1-1-2.57c-.37-.1-.67.17-.91.47a2.81,2.81,0,0,0-.45,1.05,3.23,3.23,0,0,0-.13,1.84,2.34,2.34,0,0,0,1.59,1.42,7.07,7.07,0,0,0,2.2.17l3.46-.09c.93,0,1.87-.05,2.8-.12,3.39-.25,6.79-1.09,10.14-.52,2.22.39,4.46-.35,6.7-.62l1.16-.14,1.4-.17a3.06,3.06,0,0,0,1.36-.43,2.09,2.09,0,0,0,.77-1.3,5.74,5.74,0,0,0,.06-1.55l-1,1.1a3.9,3.9,0,0,1-1.26,1.11A3.2,3.2,0,0,1,1341.61,3055.86Z" transform="translate(-1164.81 -2333.3)"/><path class="cls-104" d="M1419.15,2882.38,1398.93,2925a12,12,0,0,0,5.7,16l2,.93a12,12,0,0,0,16-5.7l15.15-31.93A115.25,115.25,0,0,1,1419.15,2882.38Z" transform="translate(-1164.81 -2333.3)"/><rect class="cls-104" x="134.74" y="552.24" width="24.38" height="87.8" rx="12"/><path class="cls-104" d="M1405.1,2947.22a4.36,4.36,0,0,0-2.57-5,4.49,4.49,0,0,0-5.61,2.16l-56.87,108.21a4.49,4.49,0,0,0,1.34,5.83,4.37,4.37,0,0,0,6.26-1.6l57.06-108.56c.26-.49.35-1,.58-1.54a17.14,17.14,0,0,1,.87-1.64,4.74,4.74,0,0,1,1-1.35,4.59,4.59,0,0,1,2.63-.8c-.39.09-.78-.22-1.14-.39-1.18-.55-2.1-1-3.28-1.4a3.71,3.71,0,0,1-.53-.26l-.68-.45c-.19-.13-.64.16-.81,0a12.92,12.92,0,0,1-2.42-2.75,3.08,3.08,0,0,0-.32-.48,2.18,2.18,0,0,0-.65-.46,6.54,6.54,0,0,1-1.24-.76,6.43,6.43,0,0,1,.21,4.39,15.23,15.23,0,0,1-2,4,9.87,9.87,0,0,1,3.08-.66,3.79,3.79,0,0,1,1.61.21,6.61,6.61,0,0,1,1,.62,12.69,12.69,0,0,0,1.62.88l.77,1.79a1.53,1.53,0,0,1,.14-.46" transform="translate(-1164.81 -2333.3)"/><path class="cls-104" d="M1351.78,3056.7a3.84,3.84,0,0,1-1.56-.37.84.84,0,0,1-.28-.18.82.82,0,0,1-.16-.34,2.15,2.15,0,0,1,.19-1.19c.14-.35.31-.69.48-1l1.75-3.53c2.54-5.13,5.28-10,7.72-15.21,2.94-6.22,6.28-12,9.34-18.13,2.64-5.29,5.32-10.32,8-15.62a38.39,38.39,0,0,0,1.67-3.7c.93-2.55,1.33-5.33,2.83-7.59-3,2.51-3.52,6.92-5.38,10.4-.69,1.28-1.58,2.45-2.26,3.74s-1.13,2.61-1.77,3.88a58.41,58.41,0,0,1-4.21,6.29c-1.14,1.68-2.12,3.45-3.11,5.22l-6.93,12.45a10.86,10.86,0,0,0-1.6,4.12c-.15,1.63-1.41,3.26-2,4.79a56.4,56.4,0,0,1-3.6,8.6,74.21,74.21,0,0,0-3.7,6.55,2.4,2.4,0,0,0-.23.9,1.64,1.64,0,0,0,.56,1.11,2.66,2.66,0,0,0,2.45.64A2.7,2.7,0,0,0,1351.78,3056.7Z" transform="translate(-1164.81 -2333.3)"/><path class="cls-104" d="M1338.53,3055.24a2.84,2.84,0,0,1-1.87,1.19c-.61.06-6.25.23-6.76.39.53.13,6.33.23,6.88.25l3.37.09c.25,0,.57,0,.66-.27a.65.65,0,0,0-.07-.45,6.71,6.71,0,0,1-.74-2.35c0-.3,1.29-3.21,1-3.41A32.73,32.73,0,0,1,1338.53,3055.24Z" transform="translate(-1164.81 -2333.3)"/><path class="cls-104" d="M1313.33,3057.16h-.76a3.85,3.85,0,0,1-3.84-3.84v-70c0-2.86.58-7-.79-9.56a6.76,6.76,0,0,0-.85-1.21,2.87,2.87,0,0,0,1.14.39c3.58.6,8.45-.71,11.77-2.19-.19.17-1.66,1.62-2.06,2.06a2.49,2.49,0,0,0-.51,1.58c0,1.24-.19,2.46-.24,3.71a5.1,5.1,0,0,0-5.64-1.77c-.61.21-1.71,1-2.37.84s-.34-1.07-.06-1.64a3.86,3.86,0,0,1,3.45-2.17h.76a3.85,3.85,0,0,1,3.84,3.83v76.14A3.85,3.85,0,0,1,1313.33,3057.16Z" transform="translate(-1164.81 -2333.3)"/><path class="cls-104" d="M1308.8,3054a7,7,0,0,1-.25,1.44,1.3,1.3,0,0,1-.2.43,1.28,1.28,0,0,1-.36.29,6.33,6.33,0,0,1-1.47.61,31.35,31.35,0,0,0,4.22.17c.55,0,1.11-.09,1.66-.13s1.26-.05,1.89-.06c1.8,0,3.59,0,5.39,0a2.17,2.17,0,0,1-2.44-1.56c-.14-.43,0-2.23-.07-2.67-.41.21-1,1.89-1.41,2.15a6.3,6.3,0,0,1-3.5,1,1.87,1.87,0,0,1-.71-.08,3,3,0,0,1-.54-.32,8.31,8.31,0,0,0-1.19-.5A2,2,0,0,1,1308.8,3054Z" transform="translate(-1164.81 -2333.3)"/><path class="cls-104" d="M1300.11,3072.39c-.2-.14-1.14-.73-1.34-.86s-.34-.29-.53-.4a5.4,5.4,0,0,1-.46-.33c-.32-.27-.56-.42-.9-.67l-.46-.35c-.52-.42-1.07-.78-1.59-1.2s-.64-.53-1-.81-1-.86-1.47-1.27c-.15-.13-.24-.19-.38-.32s-.4-.33-.58-.5c-.57-.58-1.06-1-1.6-1.5-.2-.18-.29-.29-.52-.47a4,4,0,0,1-.49-.43c-.15-.16-.36-.35-.49-.52s-.15-.26-.21-.36-.31-.13-.46-.5c-.22-.54-.44-.58,0-.91s23.09-.76,23.68-1.06c-.25,0-22-.45-22.26-.44s-.5.44-.81.46c-.13,0-.87-.17-.9-.29-.09-.37-1.33,0-2,0-.28,0-1.1,0-1.37,0a2.32,2.32,0,0,0,.07.65l.7.85a3.93,3.93,0,0,0,.66.69,1.21,1.21,0,0,1,.16.16,13.06,13.06,0,0,0,1,1.08,2.79,2.79,0,0,0,.32.28l.24.15a3.67,3.67,0,0,0,.52.27c.31.12.46.5.71.72a2.09,2.09,0,0,0,.28.24c.14.1.29.18.42.28l.2.17.77.7a6.59,6.59,0,0,0,.75.51,2.69,2.69,0,0,1,.33.26l.31.28a3.9,3.9,0,0,0,1.12.72l.36.16.6.32c.59.31,1,1,1.54,1.29l.41.23a2.58,2.58,0,0,0,.42.25c.11.05.24.07.35.12a1.76,1.76,0,0,1,.37.17l.39.23c.21.13.36.34.58.46s.25.13.36.21l.22.16C1298.5,3071.57,1299.69,3072.13,1300.11,3072.39Z" transform="translate(-1164.81 -2333.3)"/><path class="cls-104" d="M1360,3068.43c.39-.31-.23.17.14-.1s1-.85,1.48-1.27c.15-.13.24-.19.38-.32s.4-.32.58-.49c.58-.58,1.07-1,1.61-1.49a3.93,3.93,0,0,0,.5-.5c.21-.26.23-.3.36-.45a2.85,2.85,0,0,0,.32-.46c.07-.1.19-.26.25-.36s.21-.39.32-.55,1.11-1.31,1-1.4c-.59-.54-16.78-.87-17.45-1.09.25,0,16.24-.17,16.5-.15s1-.34,1.29-.32h1c.72,0,1.51-.2,2.24-.17.27,0,.94.66,1.21.71a13.56,13.56,0,0,1-.93,1.13c-.24.29-.78.76-1,1s-.59.36-.84.55c-.07.06,0,.47-.07.53-.31.39-.93.27-1.29.62-.1.1-.36,0-.48.09s0,.31,0,.36-.26.24-.44.31-.52.49-.77.71a3.4,3.4,0,0,1-.3.23c-.13.1-.32.18-.46.29s-.18.11-.25.17c-.26.23-.62.21-.88.44a6.59,6.59,0,0,1-.75.51l-.34.25-.3.28c-.33.3-.44.85-.85,1-.12,0-.24.2-.36.26s-.6.18-.8.28c-.6.31-.6,1.34-1.19,1.66-.14.07-.36-.17-.5-.09s-.38.06-.53.12-.36.24-.47.28-.08.23-.2.3-.41,0-.54,0-.22.49-.43.61a2,2,0,0,1-.56.33c-.08,0-.19.49-.27.54-.4.29-1.48.05-1.91.31l1.68-1.17c.23-.16,1-.76,1.2-.9l1-.81c.32-.27.81-.68,1-.88S1359.88,3068.5,1360,3068.43Z" transform="translate(-1164.81 -2333.3)"/><path class="cls-104" d="M1280.24,3056.75c-8.24,2.77,32.57,30.79,48.24,29.14,15.1.88,54.76-28.06,46.19-29.14C1341.72,3057.23,1287.72,3056.64,1280.24,3056.75Z" transform="translate(-1164.81 -2333.3)"/><path class="cls-106" d="M1414.5,2683.85c-15.51,0-31.51,0-47.23,0" transform="translate(-1164.81 -2333.3)"/></g></svg>